<svg width="419" height="19" viewBox="0 0 419 19" fill="none" xmlns="http://www.w3.org/2000/svg">
<path d="M391.74 9.8756C391.169 9.89124 390.592 9.90199 390.033 9.92545C389.67 9.94011 389.514 9.89711 389.272 9.87463C389.191 9.86681 389.104 9.85117 389.029 9.85312C388.464 9.86876 387.899 9.88636 387.333 9.90395C387.16 9.94207 387.051 9.99289 386.785 10.0115C386.526 10.0291 386.22 10.0291 385.932 10.0379C385.551 10.0486 385.17 10.0594 384.79 10.0691C384.599 10.074 384.444 10.0926 384.38 10.1278C384.369 10.1336 384.495 10.1483 384.565 10.1571C384.795 10.1864 385.02 10.2196 385.274 10.2421C385.516 10.2636 385.816 10.2284 386.076 10.2558C386.659 10.3174 386.664 10.3164 387.109 10.3047C387.489 10.2939 387.87 10.2822 388.251 10.2744C388.326 10.2724 388.412 10.2871 388.493 10.2949C388.735 10.3164 388.891 10.3653 389.249 10.3467C389.52 10.332 389.82 10.3291 390.102 10.3213C390.339 10.3496 390.558 10.3819 390.812 10.4044C391.048 10.4259 391.118 10.4425 390.991 10.4708C390.875 10.4972 390.714 10.508 390.5 10.5099C390.31 10.5109 390.12 10.5197 389.929 10.5246C389.831 10.5275 389.739 10.5295 389.647 10.5324C389.283 10.5432 389.283 10.5432 388.62 10.4806C388.36 10.4562 388.066 10.4904 387.818 10.4669C387.651 10.4513 387.506 10.4278 387.345 10.4112C387.276 10.4044 387.166 10.4034 387.08 10.4054C386.791 10.4122 386.503 10.4171 386.226 10.4298C386.03 10.4386 385.914 10.466 385.938 10.4933C385.943 10.5041 386.082 10.5197 386.162 10.5207C386.347 10.5226 386.543 10.509 386.722 10.5158C386.895 10.5226 387.074 10.5422 387.201 10.5637C387.46 10.6086 387.754 10.5686 388.003 10.5803C388.262 10.593 388.475 10.6321 388.724 10.6556C388.787 10.6614 388.908 10.6517 389.006 10.6487C389.289 10.6419 389.572 10.636 389.854 10.6292C390.091 10.6575 390.345 10.6829 390.558 10.7152C390.944 10.7738 391.36 10.7963 391.862 10.768C392.144 10.7523 392.421 10.7582 392.646 10.7963C392.877 10.8354 393.142 10.8315 393.436 10.8237C393.707 10.8159 393.984 10.7944 394.261 10.8217C394.861 10.8823 394.867 10.8853 395.576 10.8618C395.79 10.855 395.951 10.853 396.113 10.8755C396.263 10.896 396.424 10.9136 396.58 10.9331C396.863 10.9263 397.151 10.9195 397.434 10.9116C397.797 10.9009 397.999 10.9146 398.086 10.9693C398.137 11.0025 398.161 11.0328 398.288 11.0553C398.438 11.0827 398.599 11.0817 398.818 11.0739C399.026 11.067 399.176 11.0563 399.262 11.0211C399.297 11.0065 399.366 10.9928 399.43 10.981C399.482 10.9722 399.562 10.9586 399.608 10.9605C399.695 10.9644 399.81 10.9752 399.839 10.9879C400.122 11.1061 400.122 11.1071 400.41 11.1413C400.727 11.1794 401.056 11.2136 401.345 11.2567C401.604 11.2948 401.864 11.2782 402.147 11.2782C402.36 11.2782 402.498 11.3036 402.481 11.329C402.47 11.3437 402.389 11.3651 402.32 11.3671C401.754 11.3866 401.183 11.4033 400.612 11.4169C400.543 11.4189 400.456 11.4013 400.376 11.3925C400.214 11.3749 400.07 11.3476 399.897 11.3417C399.724 11.3358 399.522 11.3505 399.332 11.3554C399.141 11.3603 398.939 11.373 398.766 11.3652C398.593 11.3573 398.455 11.329 398.293 11.3104C398.218 11.3016 398.115 11.2889 398.051 11.2919C397.63 11.3153 397.318 11.2831 397.018 11.24C396.955 11.2312 396.845 11.2254 396.765 11.2273C396.096 11.244 395.432 11.2635 394.763 11.2821C394.492 11.2899 394.273 11.2557 394.215 11.198C394.186 11.1658 394.129 11.1335 394.129 11.1013C394.129 11.0426 393.811 11.0104 393.581 11.0172C393.2 11.027 392.813 11.0348 392.438 11.0494C392.133 11.0612 391.873 11.0494 391.665 11.0143C391.423 10.9742 391.146 10.982 390.87 10.9928C390.662 11.0006 390.604 11.0328 390.616 11.114C390.627 11.1794 390.529 11.2 390.154 11.2107C389.681 11.2244 389.202 11.2381 388.724 11.2488C388.649 11.2508 388.562 11.2342 388.487 11.2254C388.326 11.2078 388.181 11.1794 388.008 11.1736C387.835 11.1667 387.633 11.1814 387.443 11.1873C387.253 11.1922 387.051 11.2058 386.878 11.199C386.705 11.1922 386.56 11.1628 386.405 11.1443C386.33 11.1355 386.237 11.1228 386.162 11.1247C385.782 11.1325 385.401 11.1443 385.02 11.155C384.593 11.1667 384.593 11.1667 383.988 11.1061C383.711 11.0788 383.434 11.1003 383.163 11.1081C382.874 11.1159 382.603 11.1198 382.378 11.0807C382.228 11.0553 382.061 11.0397 381.882 11.0446C381.404 11.0563 380.931 11.071 380.452 11.0827C380.371 11.0846 380.262 11.0798 380.198 11.071C379.892 11.0299 379.592 10.9977 379.165 11.0182C378.796 11.0358 378.398 11.0367 378.029 11.0534C377.827 11.0622 377.735 11.0934 377.775 11.1179C377.798 11.1306 377.919 11.1452 378 11.1452C378.185 11.1462 378.387 11.1316 378.56 11.1374C378.917 11.1491 379.096 11.2312 379.563 11.2088C379.84 11.1951 380.129 11.1902 380.417 11.1863C380.492 11.1853 380.573 11.2039 380.654 11.2137C380.884 11.24 381.086 11.2742 381.421 11.2567C381.698 11.243 381.992 11.2391 382.275 11.2313C382.724 11.2185 382.725 11.2195 383.307 11.2791C383.584 11.3075 383.861 11.285 384.132 11.2782C384.334 11.2733 384.524 11.2635 384.686 11.2772C384.934 11.2977 385.113 11.3446 385.418 11.3417C385.707 11.3388 385.989 11.3251 386.278 11.3202C386.457 11.3173 386.624 11.3329 386.768 11.3593C386.918 11.3857 387.08 11.3974 387.276 11.3915C387.558 11.3837 387.847 11.3739 388.135 11.3691C388.216 11.3681 388.308 11.3769 388.383 11.3847C388.545 11.4023 388.7 11.4228 388.856 11.4414C389.139 11.4355 389.427 11.4336 389.704 11.4218C389.918 11.413 390.068 11.417 390.241 11.4365C390.46 11.4629 390.639 11.5098 390.996 11.4873C391.175 11.4766 391.383 11.4795 391.562 11.4697C391.781 11.457 391.931 11.4619 392.087 11.4912C392.381 11.5469 392.75 11.5479 393.131 11.5264C393.546 11.503 393.857 11.5303 394.169 11.5733C394.498 11.6183 394.498 11.6173 394.752 11.7258C394.827 11.7571 395.04 11.7717 395.219 11.7659C395.519 11.7561 395.778 11.761 395.997 11.7981C396.228 11.8382 396.505 11.8333 396.788 11.8226C397.163 11.8079 397.538 11.7952 397.843 11.8519C397.993 11.8793 398.155 11.8861 398.357 11.8793C398.928 11.8617 399.505 11.8509 400.064 11.8294C400.405 11.8157 400.601 11.847 400.831 11.8734C401.143 11.9096 401.483 11.9418 401.483 12.019C401.483 12.0317 401.564 12.0464 401.633 12.0562C401.783 12.0767 401.945 12.0943 402.1 12.1138C402.331 12.1432 402.556 12.1676 402.873 12.1519C403.15 12.1392 403.444 12.1353 403.727 12.1265C404.01 12.1177 404.269 12.1129 404.523 12.15C404.817 12.192 405.129 12.2321 405.463 12.2634C405.7 12.2859 406.011 12.2477 406.265 12.278C406.421 12.2966 406.571 12.3181 406.738 12.3337C406.807 12.3406 406.917 12.3357 407.009 12.3337C407.2 12.3298 407.396 12.3269 407.58 12.3171C407.794 12.3064 407.955 12.3083 408.117 12.3308C408.267 12.3513 408.417 12.3797 408.59 12.3855C408.849 12.3943 409.138 12.3552 409.397 12.4002C409.53 12.4227 409.697 12.4442 409.87 12.451C410.043 12.4579 410.245 12.4432 410.43 12.4442C410.511 12.4442 410.609 12.4598 410.655 12.4725C410.684 12.4794 410.643 12.4979 410.603 12.5077C410.551 12.5194 410.476 12.5351 410.401 12.537C409.83 12.5546 409.259 12.5693 408.688 12.5859C408.348 12.5957 408.348 12.5957 407.661 12.5341C407.5 12.5195 407.321 12.5224 407.119 12.5292C406.848 12.538 406.571 12.5546 406.288 12.537C405.919 12.4706 405.463 12.4647 404.979 12.4901C404.777 12.5009 404.592 12.5009 404.442 12.4823C404.125 12.4452 403.791 12.411 403.508 12.367C403.289 12.3328 403.185 12.3298 403.093 12.3768C403.064 12.3914 403.035 12.407 403.041 12.4207C403.075 12.4696 403.139 12.5175 403.173 12.5664C403.185 12.58 403.139 12.5957 403.11 12.6104C403.018 12.6514 402.897 12.6485 402.695 12.6143C402.493 12.58 402.25 12.5576 401.927 12.5732C401.651 12.5869 401.351 12.5849 401.074 12.5996C400.647 12.6211 400.347 12.5898 400.041 12.5478C399.978 12.539 399.868 12.5341 399.787 12.5361C398.928 12.5585 398.074 12.584 397.215 12.6064C397.03 12.6113 396.863 12.5967 396.719 12.5703C396.569 12.5439 396.401 12.5302 396.217 12.5351C395.455 12.5556 394.694 12.5742 393.932 12.5996C393.621 12.6104 393.373 12.5976 393.16 12.5634C392.998 12.538 392.848 12.5302 392.646 12.5331C392.427 12.5361 392.271 12.5458 392.162 12.5742C392.058 12.6016 392.133 12.6182 392.363 12.6397C392.611 12.6631 392.842 12.6934 393.079 12.7208C393.269 12.7169 393.459 12.7091 393.644 12.71C393.725 12.71 393.8 12.7276 393.881 12.7374C394.111 12.7657 394.325 12.7941 394.653 12.7785C394.93 12.7648 395.224 12.7618 395.507 12.753C395.899 12.7423 395.899 12.7423 396.534 12.8039C396.695 12.8195 396.868 12.8185 397.076 12.8097C397.255 12.8029 397.44 12.8166 397.566 12.8459C397.618 12.8576 397.601 12.8772 397.492 12.9417C397.492 12.9896 397.613 12.9681 397.653 12.9368C397.716 12.8918 397.595 12.8772 397.365 12.9016C397.203 12.9192 397.122 12.9446 397.163 12.9651C397.186 12.9759 397.295 12.9896 397.492 12.9417C397.999 12.883 398.386 12.8762 398.755 12.8606C398.974 12.8518 399.112 12.8557 399.285 12.8811C399.493 12.9114 399.701 12.9436 400.041 12.928C400.41 12.9104 400.803 12.9084 401.177 12.8938C401.524 12.8801 401.702 12.9231 401.922 12.9485C402.187 12.9788 402.481 12.9446 402.723 12.9622C402.977 12.9798 403.156 13.0228 403.45 13.0306C403.877 13.0042 404.148 13.0531 404.471 13.0854C404.725 13.1098 405.025 13.0883 405.296 13.0775C405.602 13.0658 405.856 13.0766 406.069 13.1118C406.311 13.1518 406.582 13.143 406.859 13.1342C407.505 13.1147 407.528 13.1117 407.903 13.1655C408.174 13.2046 408.434 13.187 408.705 13.1821C408.942 13.2085 409.172 13.2368 409.42 13.2603C409.484 13.2662 409.605 13.2564 409.703 13.2535C409.986 13.2457 410.274 13.2378 410.557 13.23C410.747 13.2251 410.949 13.2105 411.122 13.2163C411.295 13.2232 411.439 13.2515 411.595 13.2701C411.751 13.2887 411.912 13.3072 412.062 13.3268C412.293 13.3561 412.512 13.3805 412.835 13.3659C413.112 13.3532 413.401 13.3493 413.689 13.3405C414.052 13.3297 414.041 13.3326 414.716 13.3913C415.079 13.4235 415.454 13.3844 415.823 13.3805C416.008 13.3786 416.187 13.3893 416.314 13.4177C416.366 13.4294 416.348 13.449 416.366 13.4656C415.414 13.492 414.456 13.5144 413.516 13.5467C413.152 13.5594 412.962 13.5242 412.766 13.4949C412.443 13.448 412.016 13.5164 411.71 13.4558C411.526 13.4196 411.26 13.3991 410.943 13.4167C410.759 13.4265 410.563 13.4255 410.372 13.4343C409.888 13.4558 409.443 13.4568 409.057 13.3893C408.924 13.3659 408.734 13.3532 408.596 13.3307C408.434 13.3063 408.278 13.2926 408.088 13.2974C407.228 13.3209 406.375 13.3444 405.521 13.3698C405.446 13.3717 405.371 13.3864 405.308 13.3971C405.146 13.4245 405.198 13.446 405.458 13.4636C405.544 13.4695 405.613 13.4822 405.694 13.4919C405.85 13.5105 405.994 13.5398 406.167 13.5467C406.34 13.5535 406.542 13.5398 406.732 13.535C406.923 13.5301 407.125 13.5154 407.298 13.5213C407.471 13.5281 407.615 13.5565 407.776 13.5741C407.851 13.5829 407.944 13.5975 408.019 13.5965C408.4 13.5907 408.774 13.5799 409.155 13.5711C409.392 13.5975 409.594 13.6356 409.876 13.6444C410.055 13.6503 410.245 13.6395 410.43 13.6415C410.511 13.6425 410.614 13.6571 410.655 13.6698C410.678 13.6777 410.603 13.6972 410.545 13.707C410.326 13.7441 410.026 13.7373 409.755 13.749C409.461 13.7617 409.195 13.7578 408.971 13.7197C408.821 13.6943 408.653 13.6806 408.469 13.6855C407.99 13.6982 407.517 13.7129 407.038 13.7236C406.957 13.7256 406.859 13.7168 406.784 13.7099C406.179 13.6503 406.179 13.6483 405.752 13.661C405.123 13.6796 405.123 13.6796 404.702 13.6278C404.621 13.618 404.535 13.5995 404.465 13.6004C403.796 13.6161 403.133 13.6317 402.47 13.6542C402.25 13.661 402.1 13.661 401.939 13.6356C401.8 13.6141 401.639 13.5897 401.466 13.5838C401.287 13.578 401.091 13.5926 400.901 13.5975C400.71 13.6024 400.508 13.6151 400.341 13.6073C400.168 13.5995 400.018 13.5721 399.868 13.5526C399.712 13.532 399.545 13.533 399.332 13.5408C398.674 13.5633 398.668 13.5604 398.016 13.4998C397.941 13.4929 397.843 13.4851 397.763 13.4871C397.284 13.4988 396.811 13.5135 396.332 13.5252C396.148 13.5301 395.969 13.5174 395.842 13.489C395.79 13.4773 395.807 13.4577 395.773 13.4196C395.732 13.4108 395.778 13.4265 395.79 13.4411C395.876 13.4392 395.98 13.4411 396.044 13.4333C396.205 13.4147 396.286 13.3903 396.245 13.3698C396.222 13.359 396.113 13.3453 396.044 13.3453C395.917 13.3453 395.807 13.3668 395.773 13.4196C395.409 13.4519 395.023 13.4587 394.648 13.4744C394.428 13.4841 394.29 13.4793 394.117 13.4538C393.909 13.4226 393.696 13.3923 393.356 13.4079C392.986 13.4255 392.594 13.4284 392.213 13.4421C391.775 13.4578 391.585 13.3698 391.216 13.3717C390.835 13.3737 390.454 13.3903 390.073 13.402C389.739 13.4118 389.739 13.4118 389.047 13.3483C388.793 13.3248 388.493 13.359 388.245 13.3346C388.078 13.319 387.933 13.2955 387.772 13.2789C387.703 13.272 387.593 13.272 387.507 13.274C387.028 13.2857 386.543 13.2935 386.082 13.315C385.557 13.3405 385.159 13.3131 384.784 13.2554C384.311 13.2662 383.832 13.272 383.365 13.2906C383.025 13.3043 382.828 13.272 382.598 13.2457C382.517 13.2369 382.448 13.2222 382.361 13.2183C382.275 13.2144 382.171 13.2222 382.078 13.2251C381.698 13.2359 381.305 13.2408 380.936 13.2584C380.481 13.2808 380.308 13.2007 379.956 13.1909C379.719 13.2388 379.592 13.3043 379.125 13.3092C378.744 13.3131 378.364 13.3287 377.983 13.3395C377.793 13.3444 377.602 13.3502 377.412 13.3551C377.106 13.3639 376.962 13.402 377.025 13.4607C377.06 13.4929 377.089 13.5252 377.118 13.5574C377.175 13.6151 377.031 13.664 376.789 13.6708C376.12 13.6894 375.456 13.7089 374.787 13.7255C374.608 13.7304 374.435 13.7138 374.291 13.6874C374.141 13.661 373.974 13.6493 373.789 13.6542C373.12 13.6728 372.457 13.6923 371.788 13.7089C371.713 13.7109 371.615 13.7011 371.54 13.6933C371.378 13.6757 371.222 13.6552 371.067 13.6366C370.686 13.6454 370.311 13.6513 369.936 13.663C369.33 13.6806 369.33 13.6816 368.886 13.6278C368.805 13.618 368.725 13.5995 368.65 13.6004C368.361 13.6044 368.079 13.6141 367.79 13.6229C366.942 13.6483 366.942 13.6483 366.694 13.619C366.469 13.5916 366.267 13.5584 365.927 13.5741C365.558 13.5917 365.166 13.5975 364.785 13.6073C364.502 13.6141 364.22 13.622 363.937 13.6239C363.862 13.6249 363.781 13.6063 363.701 13.5965C363.47 13.5662 363.245 13.5418 362.927 13.5584C362.743 13.5682 362.547 13.5701 362.356 13.575C361.86 13.5887 361.86 13.5887 361.047 13.5301C360.966 13.5242 360.868 13.5174 360.787 13.5203C360.118 13.5379 359.455 13.5574 358.786 13.5741C358.705 13.576 358.607 13.5701 358.526 13.5653C357.615 13.5086 357.615 13.5086 356.646 13.5359C356.277 13.5457 356.265 13.5496 355.879 13.4978C355.706 13.4753 355.561 13.4646 355.359 13.4714C354.598 13.4949 353.831 13.5105 353.075 13.5379C352.735 13.5496 352.539 13.5203 352.308 13.4939C352.227 13.4851 352.141 13.4656 352.072 13.4665C351.31 13.4851 350.549 13.5076 349.787 13.5262C349.718 13.5281 349.631 13.5086 349.551 13.4998C349.395 13.4822 349.245 13.4558 349.072 13.4499C348.893 13.4441 348.697 13.4587 348.501 13.4636C348.022 13.4763 348.022 13.4753 347.468 13.4177C347.393 13.4099 347.295 13.3991 347.22 13.4011C346.459 13.4206 345.692 13.4372 344.936 13.4656C344.503 13.4812 344.209 13.4529 343.903 13.4118C343.84 13.403 343.73 13.3991 343.65 13.4011C342.79 13.4235 341.936 13.4489 341.077 13.4714C340.898 13.4763 340.725 13.4597 340.581 13.4343C340.35 13.3942 340.079 13.3991 339.791 13.4079C339.127 13.4284 339.122 13.4275 338.729 13.3805C338.648 13.3708 338.579 13.3581 338.493 13.3532C338.412 13.3483 338.308 13.3512 338.222 13.3532C337.841 13.3629 337.46 13.3737 337.08 13.3844C336.699 13.3952 336.312 13.4011 335.937 13.4177C335.476 13.4382 335.257 13.3747 334.934 13.3453C334.461 13.358 333.976 13.3659 333.509 13.3864C333.151 13.402 332.984 13.359 332.748 13.3365C332.667 13.3287 332.58 13.3121 332.505 13.3141C331.646 13.3356 330.786 13.359 329.933 13.3854C329.725 13.3913 329.586 13.3835 329.413 13.36C329.027 13.3072 329.01 13.3092 328.364 13.3287C328.081 13.3375 327.81 13.3453 327.567 13.3053C327.354 13.2691 327.095 13.2603 326.789 13.272C326.414 13.2867 326.027 13.2945 325.647 13.3043C325.266 13.315 324.885 13.3297 324.505 13.3346C324.199 13.3395 324.014 13.2935 323.772 13.2701C323.697 13.2632 323.593 13.2623 323.507 13.2642C323.126 13.273 322.734 13.2799 322.365 13.2965C321.915 13.317 321.667 13.2632 321.349 13.232C321.28 13.2251 321.165 13.229 321.078 13.232C320.409 13.2496 319.746 13.2691 319.076 13.2877C318.84 13.2613 318.598 13.2359 318.361 13.2095C317.98 13.2193 317.6 13.23 317.219 13.2398C316.931 13.2476 316.636 13.2505 316.365 13.2652C316.013 13.2847 315.84 13.2388 315.604 13.2163C315.523 13.2085 315.437 13.1919 315.362 13.1939C314.883 13.2046 314.404 13.2163 313.931 13.2329C313.481 13.2496 313.302 13.1616 312.933 13.1626C312.552 13.1635 312.16 13.1763 311.791 13.1939C311.364 13.2144 311.064 13.1831 310.759 13.1411C310.695 13.1323 310.586 13.1274 310.505 13.1293C310.026 13.1411 309.553 13.1557 309.074 13.1675C308.993 13.1694 308.895 13.1645 308.815 13.1587C307.903 13.101 307.903 13.1 307.505 13.1118C307.223 13.1196 306.934 13.1293 306.646 13.1342C306.565 13.1362 306.467 13.1274 306.392 13.1196C305.792 13.0599 305.792 13.059 305.359 13.0707C304.979 13.0815 304.598 13.0922 304.217 13.1029C303.981 13.0766 303.738 13.0512 303.502 13.0248C303.029 13.0375 302.544 13.0472 302.077 13.0648C301.858 13.0726 301.714 13.0697 301.546 13.0453C301.339 13.016 301.131 12.9818 300.785 12.9984C300.416 13.016 300.024 13.0179 299.649 13.0326C299.199 13.0502 299.014 12.9612 298.651 12.9622C298.27 12.9632 297.878 12.9759 297.509 12.9935C297.082 13.014 296.782 12.9827 296.476 12.9407C296.413 12.9319 296.303 12.927 296.222 12.929C295.172 12.9573 294.128 12.9857 293.079 13.016C292.433 13.0345 292.433 13.0355 291.204 12.9818C291.117 12.9778 291.025 12.9739 290.938 12.9759C290.558 12.9847 290.165 12.9915 289.796 13.0081C289.346 13.0287 289.098 12.9759 288.781 12.9436C288.712 12.9368 288.602 12.9407 288.51 12.9427C288.222 12.9495 287.939 12.9583 287.65 12.9661C287.27 12.9769 286.889 12.9876 286.508 12.9984C286.272 12.973 286.03 12.9466 285.793 12.9212C285.32 12.9339 284.836 12.9407 284.368 12.9612C284.011 12.9769 283.843 12.9358 283.607 12.9124C283.526 12.9045 283.44 12.8879 283.365 12.8889C282.505 12.9104 281.646 12.9329 280.792 12.9603C280.44 12.972 280.279 12.928 280.042 12.9055C279.961 12.8987 279.869 12.886 279.794 12.8879C279.223 12.9016 278.652 12.9182 278.081 12.9348C277.758 12.9446 277.758 12.9446 277.054 12.884C276.973 12.8772 276.881 12.8703 276.8 12.8723C274.989 12.9212 273.183 12.973 271.372 13.0218C271.188 13.0267 271.02 13.0121 270.876 12.9857C270.726 12.9593 270.559 12.9456 270.374 12.9505C269.613 12.971 268.846 12.9896 268.09 13.015C267.779 13.0257 267.53 13.013 267.317 12.9788C267.155 12.9534 267.006 12.9436 266.804 12.9495C266.423 12.9612 266.042 12.971 265.662 12.9818C265.281 12.9925 264.9 13.0033 264.519 13.014C264.139 13.0248 263.752 13.0306 263.377 13.0472C262.916 13.0678 262.691 13.0072 262.374 12.9769C261.803 12.9915 261.231 13.0062 260.666 13.0218C259.905 13.0424 259.143 13.0648 258.382 13.0844C258.313 13.0863 258.226 13.0687 258.145 13.0599C257.909 13.0355 257.736 13.0013 257.384 13.0121C255.676 13.0639 253.958 13.1078 252.244 13.1587C251.887 13.1694 251.731 13.1274 251.489 13.1049C251.408 13.0981 251.316 13.0844 251.241 13.0863C250.289 13.1108 249.337 13.1381 248.385 13.1645C247.999 13.1753 247.999 13.1753 247.353 13.1147C247.278 13.1078 247.18 13.099 247.099 13.101C245.859 13.1342 244.624 13.1694 243.384 13.2036C243.2 13.2085 243.032 13.1948 242.882 13.1684C242.738 13.142 242.565 13.1274 242.386 13.1323C241.244 13.1636 240.096 13.1938 238.96 13.2281C238.654 13.2378 238.4 13.229 238.181 13.1939C238.025 13.1684 237.87 13.1577 237.674 13.1635C235.96 13.2114 234.247 13.2574 232.534 13.3082C232.205 13.318 231.974 13.2994 231.767 13.2672C231.599 13.2417 231.455 13.2369 231.247 13.2408C231.028 13.2457 230.896 13.2564 230.775 13.2857C230.619 13.3238 230.521 13.3717 230.152 13.3747C229.771 13.3776 229.384 13.3893 229.009 13.4059C228.652 13.4226 228.484 13.3786 228.26 13.3522C228.092 13.3336 227.937 13.3307 227.723 13.3395C227.527 13.3473 227.406 13.3639 227.29 13.3952C227.037 13.4616 227.014 13.4616 226.702 13.4196C226.535 13.3971 226.385 13.3795 226.2 13.3835C225.439 13.403 224.677 13.4245 223.916 13.447C223.478 13.4597 223.472 13.4617 223.143 13.4128C222.982 13.3884 222.826 13.3766 222.635 13.3825C220.541 13.4411 218.448 13.4978 216.354 13.5594C216.031 13.5692 215.811 13.5486 215.581 13.5193C215.506 13.5095 215.431 13.4959 215.344 13.4919C215.258 13.488 215.16 13.492 215.067 13.4939C213.545 13.5359 212.016 13.576 210.499 13.6229C210.153 13.6337 209.968 13.6024 209.732 13.577C209.651 13.5682 209.582 13.5545 209.495 13.5506C209.409 13.5477 209.305 13.5545 209.212 13.5574C207.69 13.5995 206.161 13.6395 204.644 13.6865C204.281 13.6972 204.125 13.6562 203.888 13.6347C203.807 13.6268 203.721 13.6122 203.646 13.6141C203.167 13.6249 202.694 13.6395 202.215 13.6522C201.073 13.6845 199.931 13.7148 198.789 13.748C198.351 13.7607 198.16 13.6737 197.791 13.6777C197.312 13.6825 196.839 13.7021 196.36 13.7158C195.98 13.7265 195.599 13.7363 195.218 13.748C194.843 13.7588 194.843 13.7588 193.909 13.7021C193.828 13.6972 193.73 13.6904 193.649 13.6923C192.317 13.7285 190.979 13.7646 189.652 13.8037C189.346 13.8125 189.092 13.8077 188.873 13.7715C188.717 13.7461 188.556 13.7334 188.366 13.7392C186.364 13.7949 184.368 13.8507 182.366 13.9054C182.291 13.9073 182.193 13.8976 182.118 13.8898C181.957 13.8722 181.801 13.8516 181.645 13.8331C181.53 13.8555 181.38 13.8761 181.305 13.9015C181.201 13.9357 181.063 13.9455 180.844 13.9513C180.624 13.9572 180.486 13.9552 180.313 13.9298C180.105 13.8986 179.892 13.8741 179.552 13.8839C177.458 13.9455 175.364 14.0012 173.27 14.0618C172.924 14.0715 172.762 14.0285 172.52 14.0061C172.439 13.9992 172.347 13.9885 172.272 13.9904C171.412 14.0129 170.559 14.0373 169.699 14.0608C167.317 14.1273 164.935 14.1908 162.558 14.2612C162.125 14.2739 161.831 14.2494 161.525 14.2074C161.462 14.1986 161.352 14.1937 161.272 14.1957C157.938 14.2876 154.603 14.3804 151.275 14.4733C151.096 14.4781 150.923 14.4625 150.779 14.4371C150.629 14.4107 150.462 14.398 150.277 14.4029C148.754 14.4449 147.232 14.4869 145.709 14.5299C145.328 14.5407 145.322 14.5417 144.93 14.4948C144.849 14.485 144.763 14.4664 144.699 14.4684C144.567 14.4733 144.44 14.4977 144.347 14.5309C144.255 14.5661 144.111 14.5759 143.897 14.5827C143.678 14.5896 143.534 14.5866 143.367 14.5632C143.153 14.5339 142.957 14.5055 142.611 14.5153C138.233 14.6404 133.855 14.7606 129.476 14.8847C129.125 14.8945 128.963 14.8535 128.721 14.831C128.64 14.8241 128.559 14.8144 128.473 14.8124C128.38 14.8105 128.282 14.8163 128.19 14.8193C121.049 15.0177 113.908 15.217 106.767 15.4155C106.34 15.4272 106.345 15.4272 105.878 15.5171C105.82 15.5279 105.745 15.5425 105.665 15.5445C103.478 15.607 101.287 15.6676 99.0946 15.7282C98.1428 15.7546 97.191 15.782 96.2393 15.8074C95.8989 15.8162 95.8989 15.8162 95.0856 15.9218C95.0164 15.9306 94.9355 15.9423 94.8548 15.9442C91.0477 16.0508 87.2405 16.1573 83.4276 16.2619C83.1277 16.2697 82.8855 16.2873 82.747 16.3342C82.6489 16.3674 82.5221 16.387 82.3317 16.3929C79.6667 16.4671 77.0018 16.5424 74.3311 16.6147C74.0138 16.6235 73.8234 16.6509 73.6676 16.6919C73.6157 16.7056 73.5695 16.7213 73.4945 16.731C73.4253 16.7398 73.3215 16.7428 73.235 16.7457C70.9507 16.8092 68.6665 16.8747 66.3765 16.9353C66.0362 16.9441 65.8976 16.9803 65.7304 17.0184C65.6727 17.0311 65.6323 17.0487 65.5573 17.0575C65.4823 17.0653 65.3727 17.0653 65.2804 17.0673C63.3769 17.12 61.4734 17.1738 59.5698 17.2266C59.2006 17.2217 59.1198 17.2784 58.941 17.3126C58.8775 17.3243 58.8315 17.3399 58.7565 17.3478C58.6758 17.3556 58.5718 17.3546 58.4737 17.3566C56.9509 17.3986 55.4281 17.4436 53.8995 17.4826C53.5476 17.4914 53.4783 17.5413 53.288 17.5755C53.2245 17.5862 53.1612 17.6029 53.0862 17.6058C52.1344 17.6341 51.1826 17.6605 50.2309 17.6859C49.9136 17.6947 49.9136 17.6938 49.3541 17.7905C49.2906 17.8013 49.2156 17.813 49.1348 17.8159C47.71 17.857 46.2795 17.8961 44.849 17.9362C44.6644 17.941 44.5375 17.9645 44.4452 17.9977C44.3529 18.031 44.2203 18.0525 44.0357 18.0574C42.8935 18.0896 41.7513 18.1228 40.6092 18.1522C40.2919 18.16 40.0843 18.1844 39.9459 18.2284C39.842 18.2616 39.7151 18.2782 39.5132 18.2841C38.3711 18.3154 37.229 18.3496 36.0811 18.377C35.7465 18.3848 35.5734 18.418 35.435 18.4591C35.3254 18.4923 35.1984 18.504 34.985 18.5099C32.8911 18.5666 30.7915 18.6233 28.7033 18.6858C28.3515 18.6966 28.1726 18.6624 27.9419 18.6379C27.6131 18.6037 27.3074 18.5666 27.3074 18.4903C27.3074 18.4786 27.2094 18.4649 27.1401 18.4551C26.6267 18.3818 26.6267 18.3818 26.546 18.3037C26.4998 18.2558 26.4479 18.2069 26.4075 18.158C26.3326 18.0779 26.1479 18.0574 25.6172 18.072C25.4269 18.0769 25.2365 18.0837 25.0461 18.0876C24.7635 18.0945 24.5501 18.0622 24.4982 18.0036C24.4693 17.9713 24.4348 17.9391 24.4059 17.9068C24.6944 17.899 24.6885 17.898 25.1961 17.7798C25.4096 17.7299 25.4096 17.7299 25.0001 17.6801C24.8444 17.6615 24.6943 17.641 24.5271 17.6234C24.4521 17.6156 24.354 17.6107 24.2733 17.6126C23.7945 17.6244 23.3215 17.638 22.8485 17.6517C22.0871 17.6732 22.087 17.6732 21.314 17.5735C21.2506 17.5657 21.1525 17.5511 21.1641 17.5432C21.2275 17.5071 21.3832 17.4914 21.5794 17.4875C21.8678 17.4817 22.1504 17.4719 22.4331 17.4641C22.6234 17.4592 22.8138 17.4533 23.0041 17.4484C23.1829 17.4113 23.3676 17.3751 23.5349 17.337C23.8003 17.2784 23.8002 17.2764 23.4368 17.2354C23.206 17.208 22.958 17.1836 22.7215 17.1581C22.4388 17.166 22.1504 17.1748 21.8678 17.1816C21.5101 17.1904 21.3659 17.1718 21.2736 17.1083C21.1929 17.0526 21.2909 17.0047 21.5678 16.993C21.8505 16.9812 22.1159 16.9734 22.2601 16.9236C22.3986 16.8757 22.6408 16.8571 22.9408 16.8532C23.1311 16.8503 23.3215 16.8434 23.5118 16.8376C23.7599 16.8298 23.8926 16.7799 23.8407 16.7242C23.8118 16.688 23.7541 16.6577 23.5291 16.6499C22.5312 16.6157 22.5196 16.6167 22.0235 16.5502C21.9774 16.5443 21.9429 16.5268 21.9602 16.518C21.989 16.5033 22.0525 16.4818 22.1217 16.4789C22.7851 16.4574 23.4484 16.4378 24.1117 16.4232C24.3309 16.4183 24.4925 16.4114 24.5675 16.3753C24.6713 16.3254 24.6252 16.2795 24.4233 16.2453C24.3598 16.2345 24.2559 16.2208 24.1867 16.2218C23.4252 16.2394 22.6696 16.2619 21.9082 16.2795C21.839 16.2814 21.7121 16.2648 21.6833 16.2521C21.6256 16.2287 21.7121 16.1974 21.914 16.1866C22.1793 16.172 22.4504 16.171 22.6292 16.1221C22.8773 16.0527 23.183 15.9892 23.4599 15.9227C23.506 15.911 23.5811 15.8885 23.5638 15.8866C23.4196 15.8651 23.2523 15.8484 23.1023 15.8279C22.8485 15.7937 22.8484 15.7458 22.9061 15.6999C22.9523 15.6627 23.1253 15.6481 23.3387 15.6481C23.431 15.6481 23.5464 15.6481 23.6214 15.6393C23.8175 15.6178 23.881 15.5904 23.7829 15.5699C23.7252 15.5582 23.6215 15.5415 23.5522 15.5435C22.3178 15.5758 21.0775 15.607 19.8489 15.6471C19.4854 15.6588 19.3183 15.6217 19.0991 15.5953C18.9318 15.5748 18.776 15.567 18.5683 15.5816C18.3722 15.5953 18.1819 15.5875 18.0607 15.5552C17.9627 15.5288 18.1357 15.5064 18.6029 15.4809C18.6895 15.4761 18.7875 15.4731 18.8509 15.4634C19.5201 15.3578 19.52 15.3568 19.9815 15.3431C20.4314 15.3304 20.4316 15.3295 20.6681 15.2728C20.7777 15.2464 20.8987 15.22 21.0025 15.1926C21.0429 15.1819 21.1122 15.1623 21.0891 15.1564C20.9622 15.1261 20.7891 15.1193 20.5872 15.1262C20.1373 15.1428 19.6067 15.1291 19.3702 15.2219C19.2779 15.2571 19.1337 15.2669 18.926 15.2728C16.8379 15.3295 14.7496 15.3901 12.6557 15.4448C12.3154 15.4536 12.1597 15.4897 12.0271 15.5298C11.9117 15.5631 11.7848 15.5728 11.5656 15.5787C11.3464 15.5846 11.1732 15.5875 11.0463 15.5552C10.9714 15.5357 11.0348 15.5083 11.2079 15.4809C11.4559 15.4419 11.4097 15.393 11.329 15.347C11.2713 15.3167 11.0925 15.2952 10.9021 15.2972C10.6195 15.3011 10.3484 15.3119 10.1119 15.2728C9.9735 15.2503 9.80042 15.2346 9.64467 15.2151C9.34472 15.175 9.04475 15.134 8.62366 15.1604C8.33524 15.1506 8.13335 15.1154 7.90262 15.088C7.51614 15.0431 7.48153 15.0362 7.75841 14.9883C8.0699 14.9346 7.82758 14.8642 8.00063 14.8114C8.18522 14.7547 8.43911 14.7049 8.66408 14.6521C8.72176 14.6384 8.7737 14.6257 8.83138 14.612C8.69871 14.5925 8.5776 14.5681 8.42185 14.5544C8.21996 14.5368 8.11613 14.5153 8.12766 14.4547C8.08728 14.4459 8.10447 14.4684 8.15062 14.4742C8.20253 14.4801 8.32953 14.4752 8.39298 14.4684C8.5545 14.4498 8.63517 14.4254 8.59479 14.4048C8.57172 14.3941 8.4622 14.3804 8.39298 14.3804C8.26608 14.3804 8.1565 14.4019 8.12189 14.4547C7.47583 14.4948 6.8066 14.5143 6.13747 14.5299C6.06825 14.5319 5.98177 14.5124 5.90101 14.5026C5.63567 14.4693 5.63564 14.4703 4.85691 14.4605C4.77615 14.4596 4.66661 14.4459 4.62623 14.4322C4.45895 14.3726 4.46476 14.3071 4.38401 14.2436C4.53398 14.2025 4.68384 14.1624 4.83959 14.1224C5.15108 14.0412 5.55495 13.9699 5.79722 13.881C5.74531 13.8331 5.67608 13.7852 5.92988 13.7461C6.65093 13.6972 6.64521 13.6972 6.84133 13.6503C7.40086 13.5174 7.95459 13.3835 8.53719 13.2525C8.69294 13.2183 8.69296 13.1997 8.41608 13.1851C8.32955 13.1811 8.23714 13.1802 8.14484 13.1821C7.85642 13.189 7.56801 13.2066 7.28536 13.2026C7.00271 13.1997 6.79505 13.1567 6.56432 13.1303C6.32782 13.103 6.09133 13.0746 5.85482 13.0463C5.58371 13.0492 5.31265 13.0766 5.04154 13.0326C4.83388 12.9984 4.57432 12.9739 4.33781 12.9456C4.51663 12.8713 4.85125 12.8146 5.11082 12.7491C5.34733 12.6895 5.35296 12.6905 5.98748 12.6446C6.28744 12.6231 6.39127 12.5126 6.13747 12.4804C5.83174 12.4413 5.50878 12.4051 5.19729 12.3679C4.92618 12.3709 4.64936 12.3973 4.38978 12.3533C4.18789 12.3201 3.95711 12.2976 3.62254 12.3103C3.05724 12.3318 2.48043 12.3425 1.90936 12.3601C1.71323 12.366 1.49974 12.3621 1.41322 12.3289C1.35554 12.3054 1.52283 12.2731 1.71318 12.2663C2.0016 12.2565 2.26115 12.2448 2.40536 12.1959C2.5438 12.1471 2.79758 12.1324 3.09753 12.1256C3.17829 12.1236 3.27065 12.1119 3.31103 12.1001C3.51869 12.0435 3.74944 11.9946 4.1936 11.9965C4.37819 11.977 4.47619 11.9526 4.41851 11.9291C4.3839 11.9164 4.26283 11.8998 4.1936 11.9017C3.71483 11.9115 3.23607 11.9213 2.76884 11.9389C2.54964 11.9467 2.38227 11.9487 2.24383 11.9193C2.14577 11.8998 2.19768 11.8734 2.38226 11.845C2.54378 11.8206 2.58997 11.7923 2.57844 11.759C2.5496 11.6818 2.37651 11.6593 1.82275 11.6642C1.42473 11.6681 1.32667 11.6554 1.24014 11.589C1.21707 11.5733 1.15948 11.5518 1.19986 11.5411C1.4479 11.4746 1.60943 11.3925 2.07666 11.3612C2.26125 11.3495 2.4573 11.3495 2.57266 11.3241C2.68803 11.2987 2.79191 11.2694 2.91305 11.2449C3.06302 11.2156 3.16675 11.1882 3.09753 11.1697C2.98217 11.1364 2.79764 11.1335 2.58421 11.1452C2.39962 11.155 2.20351 11.156 2.01315 11.1618C1.67282 11.1726 1.396 11.1472 1.35562 11.1042C1.24602 10.9908 1.13062 10.8784 1.03256 10.765C1.02102 10.7514 1.04978 10.7338 1.09593 10.722C1.25744 10.681 1.43056 10.6419 1.59785 10.6018C1.79397 10.5559 2.10551 10.5647 2.37086 10.5559C2.7458 10.5432 2.74567 10.5441 3.24752 10.4503C3.44364 10.4132 3.78399 10.4278 3.98588 10.3946C4.04933 10.3838 4.1474 10.3663 4.13009 10.3565C4.10702 10.3438 3.99171 10.334 3.90519 10.3281C3.82443 10.3223 3.72639 10.3193 3.63987 10.3223C2.59002 10.3506 1.54598 10.3809 0.49614 10.4083C0.317321 10.4132 0.121192 10.3917 0.0577399 10.3614C-0.00571202 10.333 0.0115367 10.2988 0 10.2666C0.167282 10.2265 0.357565 10.1893 0.501774 10.1463C0.611372 10.1131 0.738299 10.0984 0.957496 10.0965C1.24591 10.0936 1.52859 10.0818 1.85162 10.073C2.45153 9.93034 3.03986 9.7808 3.68592 9.6381C3.94549 9.58043 3.88214 9.52178 3.93406 9.46021C3.98597 9.40352 4.37243 9.41232 4.63201 9.39571C4.83967 9.38203 4.9088 9.35074 4.82804 9.32924C4.78189 9.31653 4.67812 9.30187 4.59736 9.30187C4.40701 9.30187 4.21666 9.31067 4.0263 9.31556C3.83594 9.32044 3.61676 9.31752 3.46101 9.33413C3.31104 9.34977 3.21292 9.38299 3.11485 9.41134C3.00526 9.44262 2.86115 9.45337 2.64195 9.45533C2.3593 9.45728 2.07667 9.46607 1.79402 9.47291C1.48253 9.4348 1.15943 9.39766 0.859479 9.35759C0.801796 9.34977 0.790197 9.32729 0.795965 9.31263C0.807502 9.27452 0.720999 9.25105 0.530644 9.23248C0.36913 9.21684 0.236446 9.19437 0.086469 9.17482C0.201836 9.14843 0.328785 9.12301 0.421079 9.09466C0.622971 9.03504 0.876807 8.99205 1.3152 8.994C1.48825 8.95588 1.62665 8.90897 1.85162 8.88258C2.06505 8.85717 2.42847 8.88257 2.58999 8.8249C2.67074 8.79656 2.79195 8.76431 2.94769 8.75258C3.19573 8.73401 3.51875 8.74379 3.66296 8.68906C3.74949 8.65778 3.87634 8.62943 4.04362 8.62161C4.23398 8.61281 4.43005 8.61087 4.56849 8.5923C4.64348 8.58252 4.72425 8.56688 4.72425 8.5532C4.72425 8.5444 4.60897 8.53071 4.52821 8.52485C4.45323 8.51801 4.35505 8.51312 4.26853 8.51508C3.98011 8.52094 3.69746 8.53169 3.40905 8.53756C3.32829 8.53951 3.23602 8.53267 3.1495 8.52681C2.89569 8.51117 2.91296 8.49162 3.11485 8.45644C3.31675 8.42223 3.46104 8.37824 3.62832 8.33817C3.8129 8.33132 4.0436 8.33426 4.17051 8.31569C4.38394 8.28539 4.53388 8.2414 4.70693 8.20328C4.89728 8.19742 5.09339 8.19547 5.27221 8.18472C5.3472 8.18081 5.38184 8.15931 5.44529 8.1466C5.56066 8.12217 5.6588 8.08698 5.81455 8.07525C6.06835 8.05766 6.37984 8.0645 6.52982 8.01074C6.61634 7.97946 6.74896 7.94624 6.91048 7.94429C7.36041 7.94038 7.55077 7.88661 7.7815 7.83578C7.95455 7.79767 8.32374 7.81722 8.5141 7.7791C8.641 7.75467 8.73335 7.72436 8.86025 7.7009C8.91217 7.69113 9.02173 7.68625 9.10825 7.68332C9.58126 7.66866 10.06 7.6579 10.533 7.64226C10.608 7.63933 10.6773 7.62468 10.735 7.61295C10.8561 7.58754 10.931 7.55235 11.081 7.53573C11.231 7.51911 11.4444 7.51912 11.629 7.51423C12.2231 7.49957 12.2693 7.50347 12.5404 7.42039C12.7596 7.35295 13.2961 7.40085 13.4749 7.32657C13.5788 7.28356 13.769 7.24838 14.1094 7.24349C14.5881 7.23665 15.0611 7.21808 15.5399 7.20537C15.9668 7.19364 15.961 7.19364 16.4225 7.10274C16.6301 7.06169 16.9359 7.06756 17.207 7.05974C17.4955 7.05192 17.7608 7.0402 17.8992 6.99133C18.0377 6.94344 18.2914 6.92779 18.5856 6.92095C18.8567 6.91411 19.1625 6.919 19.376 6.8799C19.8951 6.78608 19.8893 6.78509 20.2528 6.77532C20.8238 6.75968 21.3949 6.74404 21.9659 6.72743C22.3466 6.71667 22.7446 6.71472 23.1023 6.69322C23.3619 6.67758 23.4772 6.62285 23.6445 6.58473C24.1175 6.57007 24.5905 6.5554 25.0635 6.54172C25.7268 6.52217 26.3959 6.50458 27.0651 6.48601C27.3535 6.44887 27.394 6.36677 27.8785 6.36286C28.1669 6.36091 28.4496 6.3482 28.738 6.34038C29.2168 6.3267 29.6897 6.3091 30.1685 6.30226C30.5319 6.29738 30.5953 6.24459 30.7856 6.21136C30.8491 6.19963 30.9068 6.18302 30.9818 6.18009C31.7317 6.15272 32.5046 6.14686 33.2372 6.10678C33.3122 6.10288 33.3814 6.08235 33.3987 6.06769C33.4102 6.05987 33.3122 6.04521 33.2487 6.03837C33.1737 6.03055 33.0757 6.02273 32.995 6.02469C30.6126 6.09017 28.2304 6.15664 25.848 6.22212C25.5135 6.2319 25.5135 6.23091 24.7001 6.33843C24.6309 6.34722 24.5501 6.35699 24.4635 6.35993C24.0828 6.37165 23.6964 6.3785 23.3214 6.39317C23.0157 6.40489 22.762 6.39316 22.5428 6.35797C22.387 6.33256 22.2254 6.32474 22.0293 6.3267C21.8101 6.32963 21.666 6.34038 21.5391 6.36677C21.3718 6.40294 21.2852 6.44985 20.9334 6.45962C19.3125 6.50165 17.6915 6.54856 16.0763 6.59352C15.8514 6.57984 15.7418 6.55932 15.7995 6.53488C15.8341 6.52022 15.9033 6.50067 15.9725 6.49872C16.6359 6.47819 17.305 6.4606 17.9684 6.44106C18.0607 6.43812 18.1875 6.44007 18.2395 6.43029C18.4933 6.38631 18.5857 6.31496 19.0644 6.31008C19.3413 6.30715 19.6239 6.29249 19.8893 6.27881C19.9643 6.2749 20.0335 6.25437 20.0508 6.23971C20.0566 6.23189 19.9643 6.21722 19.895 6.21038C19.6412 6.18204 19.3471 6.21626 19.0933 6.19671C19.0068 6.18987 18.8856 6.18009 18.8683 6.16836C18.8567 6.15761 18.9548 6.14001 19.024 6.12926C19.0875 6.11949 19.1739 6.1107 19.2605 6.10776C20.0219 6.08528 20.7834 6.06182 21.5449 6.04423C21.8563 6.03739 22.0755 6.01295 22.2139 5.96799C22.3178 5.93476 22.4447 5.91717 22.6408 5.91228C23.9733 5.87612 25.3057 5.83605 26.644 5.80282C26.9786 5.795 27.1517 5.76275 27.2901 5.72072C27.3997 5.68749 27.5266 5.67576 27.7401 5.66989C29.6494 5.61907 31.5471 5.56238 33.4565 5.51351C33.8083 5.50472 33.9122 5.46269 34.091 5.42652C34.1545 5.41382 34.1948 5.39818 34.2755 5.39036C34.3563 5.38254 34.4601 5.38351 34.5582 5.38156C36.081 5.33953 37.604 5.29458 39.1326 5.25548C39.4902 5.24668 39.5593 5.19781 39.7439 5.1636C39.8074 5.15285 39.8651 5.13526 39.9401 5.13233C41.0822 5.0991 42.2243 5.06782 43.3664 5.03557C44.1279 5.01407 44.8893 4.99256 45.6507 4.97203C46.0256 4.96226 46.0257 4.96128 46.5333 4.86843C46.591 4.85767 46.6718 4.84497 46.7468 4.84203C48.9387 4.77948 51.1249 4.71987 53.3169 4.6583C53.5014 4.65341 53.6341 4.63092 53.7264 4.59769C53.8187 4.56446 53.9515 4.54198 54.1303 4.53709C55.8435 4.48822 57.5566 4.44033 59.2756 4.39439C59.5871 4.38657 59.8062 4.36311 59.9447 4.31913C60.0485 4.2859 60.1754 4.26831 60.3715 4.26343C62.0847 4.21651 63.798 4.16666 65.517 4.1217C65.8458 4.1129 66.0072 4.07967 66.1688 4.04058C66.2264 4.02689 66.2726 4.00441 66.3418 4.00246C67.1956 3.97509 68.0435 3.94675 68.903 3.92818C69.2606 3.92036 69.3818 3.8793 69.526 3.84021C69.6414 3.80893 69.7741 3.79818 69.9933 3.79427C70.472 3.78548 70.945 3.76887 71.4122 3.75225C71.4815 3.74932 71.568 3.72782 71.5738 3.71413C71.5853 3.68872 71.4526 3.67112 71.2334 3.66233C68.9491 3.72586 66.6592 3.78938 64.3749 3.85291C63.9999 3.86367 63.9999 3.86367 63.4923 3.95652C63.4346 3.96728 63.3538 3.97998 63.273 3.98292C61.0811 4.04449 58.8949 4.10509 56.7029 4.16667C56.5184 4.17155 56.3857 4.19403 56.2934 4.22726C56.2011 4.26049 56.0683 4.28297 55.8895 4.28786C53.7956 4.3465 51.7018 4.40613 49.6021 4.46184C49.2906 4.46966 49.0714 4.49213 48.933 4.53709C48.8292 4.57032 48.7023 4.58792 48.5061 4.59281C46.5045 4.64754 44.5086 4.7052 42.5012 4.75798C42.2993 4.76287 42.1494 4.73452 42.1609 4.70813C42.1667 4.69445 42.2531 4.67198 42.3223 4.67002C43.3664 4.63777 44.4048 4.60453 45.4547 4.5801C45.8065 4.57228 45.9103 4.52927 46.0891 4.49311C46.1468 4.4804 46.193 4.46379 46.2679 4.45695C46.3487 4.44913 46.4525 4.45011 46.5506 4.44815C49.0252 4.37876 51.4999 4.30839 53.9803 4.2429C54.3379 4.23313 54.4071 4.18523 54.5916 4.15102C54.6551 4.1393 54.7128 4.12171 54.7878 4.11975C55.5492 4.09629 56.3106 4.07577 57.0721 4.05524C58.4045 4.0181 59.737 3.98096 61.0753 3.94382C61.4617 3.93307 61.4618 3.93306 61.9578 3.84119C62.0155 3.83044 62.0963 3.81676 62.1713 3.81481C65.6958 3.71609 69.2203 3.61737 72.7448 3.51963C72.9294 3.51475 73.062 3.49227 73.1543 3.45903C73.2466 3.42678 73.3792 3.40332 73.5581 3.39746C78.3227 3.26453 83.0816 3.1316 87.8463 3.00063C88.1578 2.99184 88.3769 2.97131 88.5154 2.92537C88.6134 2.89214 88.7461 2.87455 88.9422 2.86869C94.1799 2.72306 99.4175 2.57743 104.661 2.43082C108.185 2.33308 111.71 2.23338 115.234 2.1376C115.557 2.1288 115.73 2.0985 115.892 2.05843C115.944 2.04474 115.996 2.02226 116.065 2.02031C116.821 1.99587 117.576 1.97339 118.332 1.95091C118.568 1.9773 118.805 2.00272 119.041 2.02911C119.22 1.99197 119.393 1.95385 119.572 1.91671C120.714 1.88836 121.839 1.84438 122.993 1.8307C123.068 1.82972 123.149 1.84829 123.229 1.85807C123.766 1.91964 124.071 1.91475 124.412 1.83265C124.533 1.80333 124.637 1.77694 124.821 1.77206C125.392 1.75446 125.969 1.74273 126.535 1.72221C126.84 1.71146 127.094 1.72123 127.313 1.75641C127.469 1.78183 127.631 1.79258 127.821 1.78672C128.871 1.7574 129.915 1.72905 130.965 1.69777C131.04 1.69582 131.109 1.6792 131.167 1.66747C131.288 1.64206 131.392 1.6147 131.507 1.58831C131.663 1.60492 131.836 1.61763 131.963 1.63913C132.124 1.66454 132.274 1.66454 132.493 1.6577C136.681 1.53943 140.875 1.4241 145.063 1.30486C145.42 1.29509 145.576 1.33614 145.818 1.35764C145.899 1.36546 145.98 1.37523 146.066 1.37719C146.159 1.37914 146.257 1.37328 146.349 1.37035C149.493 1.28238 152.636 1.19539 155.78 1.10743C156.196 1.0957 156.196 1.0957 156.813 1.15629C156.888 1.16411 156.986 1.17291 157.067 1.16998C158.497 1.13186 159.928 1.09081 161.352 1.05172C161.537 1.04683 161.693 1.06247 161.86 1.08495C162.189 1.12893 162.212 1.12893 162.454 1.06443C162.569 1.03413 162.691 1.01555 162.881 1.00675C163.089 0.996977 163.256 0.99992 163.417 1.01751C163.648 1.04195 163.816 1.08299 164.167 1.07224C165.69 1.0263 167.219 0.988188 168.736 0.941274C169.082 0.930522 169.267 0.963752 169.497 0.988186C169.578 0.996983 169.653 1.01067 169.74 1.0136C169.826 1.01653 169.93 1.00968 170.022 1.00675C171.926 0.953972 173.835 0.90218 175.733 0.845491C176.09 0.83474 176.246 0.87676 176.489 0.898262C176.569 0.906081 176.662 0.919772 176.737 0.917817C177.879 0.887518 179.027 0.855255 180.169 0.823001C180.578 0.811272 180.578 0.81225 181.201 0.871871C181.276 0.87969 181.374 0.88751 181.455 0.885556C182.788 0.849392 184.126 0.812251 185.458 0.77511C185.868 0.763381 185.868 0.763384 187.05 0.814208C187.137 0.818117 187.229 0.823989 187.316 0.822035C188.839 0.780007 190.367 0.738951 191.89 0.693991C192.196 0.685194 192.45 0.693011 192.669 0.728197C192.825 0.753609 192.986 0.764366 193.176 0.758502C194.89 0.71061 196.609 0.664674 198.316 0.61385C198.645 0.604076 198.858 0.62557 199.089 0.653914C199.164 0.663688 199.239 0.677375 199.326 0.681284C199.412 0.685194 199.51 0.681281 199.602 0.678349C201.316 0.630457 203.034 0.585499 204.742 0.533697C205.088 0.522946 205.273 0.556175 205.503 0.58061C205.584 0.589406 205.671 0.607 205.74 0.606023C206.409 0.589407 207.078 0.574752 207.741 0.550317C208.099 0.536633 208.255 0.581585 208.497 0.603088C208.578 0.60993 208.67 0.624598 208.745 0.622643C210.176 0.584525 211.606 0.544455 213.031 0.503404C213.233 0.49754 213.383 0.506328 213.544 0.53174C213.758 0.565949 214.006 0.579633 214.317 0.568882C214.981 0.546402 215.65 0.530768 216.319 0.512197C216.711 0.501446 216.711 0.501449 217.911 0.552274C217.998 0.556183 218.09 0.562043 218.176 0.560089C219.319 0.528812 220.466 0.498515 221.603 0.464306C221.909 0.454532 222.162 0.463326 222.382 0.498512C222.537 0.523925 222.693 0.534682 222.889 0.528817C223.939 0.499495 224.983 0.470171 226.033 0.44085C226.414 0.430098 226.794 0.411523 227.175 0.411523C227.452 0.412501 227.654 0.459413 227.902 0.482871C227.971 0.489713 228.087 0.481902 228.179 0.479948C229.511 0.442807 230.85 0.408595 232.176 0.366567C232.522 0.355816 232.707 0.389045 232.938 0.41348C233.018 0.422276 233.105 0.43987 233.174 0.438893C233.653 0.428142 234.126 0.413479 234.605 0.400773C235.176 0.385135 235.753 0.373406 236.318 0.351904C236.779 0.334311 236.952 0.419341 237.322 0.422273C237.604 0.425205 237.893 0.408592 238.175 0.400773C238.746 0.385135 239.317 0.367544 239.888 0.35386C240.09 0.348973 240.246 0.333328 240.31 0.298142C240.321 0.291301 240.223 0.276646 240.16 0.267849C239.393 0.168155 239.392 0.168151 238.619 0.189653C238.141 0.203337 237.668 0.217023 237.189 0.228751C237.108 0.230706 237.016 0.222887 236.935 0.217023C236.704 0.200407 236.727 0.180862 236.924 0.145675C237.12 0.110489 237.27 0.067488 237.437 0.0274149C237.673 0.0528271 237.904 0.0782302 238.141 0.103642C238.331 0.0987554 238.521 0.0928997 238.712 0.0880127C239.664 0.0626005 240.615 0.0362091 241.567 0.0127517C241.636 0.0107969 241.723 0.0303476 241.804 0.0401215C242.034 0.0684658 242.242 0.0928939 242.577 0.0821426C243.43 0.0537983 244.29 0.0332731 245.143 0.00883828C245.518 -0.00191303 245.518 -0.00191207 246.176 0.0586862C246.251 0.0655279 246.349 0.0733475 246.43 0.0713928C247.289 0.0489128 248.143 0.0244808 249.002 0.00102344C249.187 -0.00386352 249.366 0.00884209 249.499 0.0371864C249.551 0.0489151 249.539 0.0684592 249.758 0.228751C250.439 0.358744 250.906 0.345068 251.379 0.333339C251.581 0.328452 251.76 0.32356 251.892 0.304012C251.962 0.293261 252.048 0.27762 252.048 0.264914C252.048 0.25514 251.921 0.239499 251.841 0.237545C251.27 0.217997 250.727 0.259053 250.168 0.267849C249.908 0.271759 249.683 0.23755 249.637 0.181838C249.626 0.1662 249.608 0.149586 249.591 0.133947C249.574 0.118309 249.562 0.101694 249.545 0.086056C249.32 0.0811691 249.187 0.0987592 249.089 0.131991C249.008 0.159358 248.893 0.190634 248.737 0.205295C248.581 0.220933 248.368 0.218006 248.178 0.222893C247.993 0.22778 247.791 0.240485 247.618 0.233643C247.445 0.225824 247.307 0.197475 247.145 0.179882C247.07 0.171085 246.978 0.158384 246.903 0.160339C246.24 0.176954 245.582 0.193564 244.924 0.215066C244.578 0.226795 244.405 0.185751 244.186 0.160339C244.013 0.140791 243.84 0.145672 243.811 0.190632C243.736 0.298145 244.001 0.343102 244.59 0.322577C245.074 0.304984 245.513 0.302061 245.893 0.368524C245.945 0.37732 246.066 0.381228 246.141 0.379273C246.614 0.367545 247.082 0.352882 247.555 0.341154C247.641 0.339199 247.734 0.343102 247.814 0.347012C248.991 0.399791 248.991 0.400774 249.389 0.389045C249.579 0.383181 249.764 0.378293 249.747 0.22973C250.11 0.0704149 250.687 0.0596655 251.246 0.0362081C251.61 0.0215472 251.766 0.0645544 252.002 0.0870344C252.083 0.0948535 252.169 0.110489 252.244 0.108534C253.485 0.0762802 254.719 0.0420667 255.953 0.00590324C256.161 3.88902e-05 256.311 0.00590419 256.472 0.0313164C256.68 0.0635703 256.911 0.0840998 257.24 0.0723711C257.897 0.0489137 258.566 0.0342562 259.236 0.0147084C259.576 0.00493444 259.576 0.00492442 260.262 0.0655227C260.337 0.0723644 260.435 0.080184 260.516 0.0782293C261.185 0.0616136 261.849 0.0410946 262.512 0.0235015C262.697 0.0186146 262.864 0.0322966 263.008 0.0586862C263.152 0.0850758 263.325 0.0987578 263.504 0.0938709C264.173 0.0762778 264.837 0.0567362 265.5 0.0391431C265.581 0.0371884 265.679 0.0440296 265.754 0.0508714C266.458 0.11147 266.458 0.11146 266.781 0.101686C267.254 0.0870248 267.738 0.0801907 268.205 0.0606429C268.661 0.0410951 268.898 0.097779 269.209 0.129056C270.063 0.106576 270.922 0.0880098 271.77 0.0606429C272.116 0.0489142 272.301 0.0811652 272.532 0.106577C272.612 0.115374 272.693 0.133946 272.768 0.132969C273.056 0.129059 273.339 0.11831 273.622 0.110491C273.905 0.102672 274.193 0.0948535 274.476 0.0870344C274.799 0.115379 275.012 0.18184 275.474 0.15936C275.75 0.145677 276.045 0.142745 276.327 0.134926C276.61 0.127106 276.898 0.119288 277.181 0.111469C277.371 0.106582 277.567 0.103646 277.752 0.0948492C278.092 0.0801883 278.26 0.128086 278.502 0.149589C278.583 0.156431 278.675 0.168152 278.75 0.166197C279.321 0.152513 279.898 0.140786 280.457 0.118306C280.89 0.100713 281.184 0.130038 281.49 0.171089C281.553 0.179885 281.663 0.184772 281.744 0.182817C282.413 0.166201 283.076 0.14567 283.74 0.128077C283.918 0.12319 284.091 0.138828 284.236 0.16424C284.386 0.19063 284.553 0.203345 284.737 0.198458C285.401 0.180865 286.07 0.161312 286.733 0.143719C286.814 0.141764 286.912 0.149585 286.987 0.157404C287.633 0.218002 287.633 0.21898 288.014 0.207252C288.106 0.204319 288.204 0.202357 288.297 0.199425C288.77 0.185741 289.26 0.180861 289.721 0.157404C290.252 0.131014 290.639 0.164247 291.013 0.219958C291.486 0.208229 291.971 0.201386 292.432 0.181838C292.779 0.167178 292.963 0.204317 293.194 0.228751C293.275 0.237548 293.361 0.255141 293.43 0.253186C294.099 0.23657 294.769 0.221915 295.426 0.19748C295.784 0.183797 295.94 0.227771 296.182 0.250251C296.263 0.25807 296.349 0.271761 296.424 0.269806C296.805 0.261987 297.186 0.250253 297.566 0.239501C298.011 0.226795 298.01 0.227772 298.599 0.287392C298.876 0.315737 299.153 0.293256 299.424 0.286414C299.712 0.278595 299.983 0.272733 300.214 0.312806C300.358 0.338218 300.531 0.353857 300.71 0.349947C301.091 0.34115 301.477 0.332358 301.852 0.317697C302.152 0.305969 302.412 0.313783 302.631 0.349947C302.787 0.375359 302.948 0.388073 303.139 0.382208C303.992 0.358751 304.852 0.334307 305.705 0.311827C305.78 0.309872 305.884 0.318672 305.953 0.327469C306.115 0.345062 306.271 0.364605 306.426 0.384153C306.801 0.375357 307.188 0.371457 307.557 0.357774C307.949 0.34409 308.307 0.339202 308.613 0.392958C308.676 0.404687 308.768 0.421294 308.843 0.420316C309.132 0.416407 309.414 0.406636 309.697 0.398817C309.98 0.390997 310.268 0.383179 310.551 0.37536C310.88 0.399795 311.087 0.470166 311.549 0.447686C311.826 0.434003 312.12 0.43107 312.403 0.423251C312.685 0.415432 312.974 0.406637 313.256 0.399795C313.349 0.39784 313.452 0.39295 313.533 0.39686C313.62 0.400769 313.695 0.414456 313.77 0.42423C314 0.452574 314.214 0.480922 314.543 0.464306C314.819 0.450623 315.114 0.447689 315.396 0.438893C315.783 0.428142 315.783 0.428144 316.423 0.489719C316.683 0.515131 316.977 0.481901 317.225 0.503404C317.392 0.518065 317.536 0.542495 317.698 0.55911C317.767 0.565952 317.877 0.56888 317.957 0.566925C318.338 0.558128 318.725 0.549336 319.1 0.534675C319.405 0.522947 319.659 0.534674 319.873 0.56986C320.028 0.595272 320.184 0.606029 320.38 0.600165C321.332 0.572798 322.284 0.549333 323.23 0.519034C323.553 0.508282 323.812 0.524902 323.991 0.560089C324.297 0.620687 324.729 0.549339 325.047 0.598208C325.243 0.628507 325.439 0.663695 325.797 0.649034C326.454 0.623622 327.123 0.609931 327.787 0.592338C328.023 0.618728 328.26 0.645123 328.502 0.671513C328.883 0.660761 329.263 0.650003 329.644 0.640229C329.927 0.63241 330.215 0.623615 330.498 0.616773C330.59 0.614818 330.688 0.610908 330.775 0.615795C330.861 0.620682 330.931 0.63339 331.011 0.643164C331.409 0.691057 331.409 0.692039 332.067 0.672491C332.349 0.663694 332.621 0.65783 332.857 0.696926C333.076 0.733089 333.336 0.739927 333.636 0.729175C334.201 0.709628 334.772 0.694968 335.349 0.681284C335.528 0.676397 335.695 0.693013 335.845 0.718425C336.07 0.758498 336.347 0.75459 336.63 0.743839C337.005 0.730155 337.374 0.716474 337.691 0.771208C337.754 0.782937 337.853 0.799544 337.922 0.798566C338.395 0.790747 338.874 0.784887 339.335 0.766317C339.796 0.747746 340.021 0.808343 340.339 0.837664C340.812 0.824958 341.29 0.812251 341.763 0.799545C341.856 0.796612 341.965 0.787821 342.046 0.792708C342.386 0.813233 342.583 0.886536 343.05 0.864056C343.321 0.85135 343.615 0.847445 343.898 0.844513C343.973 0.843535 344.071 0.860143 344.123 0.872849C344.152 0.879691 344.123 0.89826 344.088 0.908034C343.984 0.935401 343.857 0.96082 343.765 0.989165C343.753 0.993074 343.863 1.01066 343.927 1.01848C344.082 1.03607 344.261 1.03315 344.469 1.02533C344.648 1.01849 344.832 1.03217 344.959 1.06149C345.011 1.07322 344.994 1.09277 344.884 1.15727C344.884 1.20517 345.005 1.18366 345.046 1.15238C345.109 1.10742 344.988 1.09276 344.757 1.1172C344.596 1.13479 344.515 1.1602 344.555 1.18073C344.578 1.19148 344.688 1.20517 344.884 1.15727C345.392 1.09863 345.772 1.08788 346.153 1.07713C346.251 1.0742 346.367 1.06442 346.436 1.07028C346.684 1.09374 346.915 1.12209 347.157 1.14848C347.434 1.14262 347.693 1.12795 347.964 1.16607C348.345 1.21982 348.362 1.21494 348.732 1.20419C348.922 1.19832 349.112 1.19344 349.303 1.18856C349.493 1.18367 349.643 1.19833 349.81 1.22081C350.151 1.26674 350.179 1.26674 350.404 1.20419C350.537 1.16607 350.629 1.15337 350.797 1.17096C351.35 1.23058 351.356 1.23449 351.829 1.21689C352.221 1.20223 352.591 1.19832 352.879 1.25403C353.075 1.29313 353.139 1.28433 353.294 1.24328C353.71 1.13479 353.9 1.13674 354.679 1.21494C355.042 1.25208 355.417 1.21201 355.786 1.20712C356.098 1.20321 356.317 1.22666 356.34 1.28824C356.357 1.32636 356.409 1.35373 356.617 1.36644C356.698 1.37132 356.796 1.37816 356.876 1.37621C357.355 1.36448 357.828 1.35079 358.307 1.33711C358.549 1.33027 358.682 1.28434 358.636 1.22374C358.584 1.15923 358.676 1.13577 359.022 1.1172C359.23 1.10645 359.397 1.10841 359.565 1.126C359.749 1.14555 359.697 1.16314 359.536 1.19833C359.149 1.28434 359.195 1.33711 359.691 1.39673C359.865 1.41725 360.003 1.43583 360.043 1.46613C360.066 1.48177 360.043 1.50229 360.095 1.51402C360.378 1.57951 360.77 1.62154 361.209 1.65282C361.63 1.62643 361.918 1.6704 362.241 1.70559C362.495 1.73296 362.795 1.7095 363.066 1.69973C363.372 1.68898 363.625 1.69679 363.845 1.73296C364 1.75837 364.162 1.77009 364.352 1.76521C364.733 1.75446 365.119 1.74762 365.494 1.73198C365.817 1.7183 366.06 1.73785 366.262 1.77108C366.515 1.81311 366.798 1.78476 367.063 1.79062C367.421 1.79746 367.6 1.88445 368.067 1.86099C368.344 1.84731 368.632 1.84242 368.921 1.83851C368.996 1.83753 369.088 1.85415 369.152 1.86588C369.457 1.91964 369.815 1.91671 370.207 1.90107C370.478 1.89032 370.744 1.88055 371.009 1.91769C371.447 1.98024 371.932 2.03498 372.393 2.09264C372.457 2.1376 372.411 2.19037 372.739 2.21676C372.913 2.23045 373.074 2.25098 373.207 2.27346C373.368 2.29985 373.518 2.30669 373.726 2.29985C374.101 2.28617 374.493 2.28322 374.862 2.26563C375.203 2.24999 375.416 2.28226 375.624 2.31256C375.791 2.33699 375.947 2.34871 376.149 2.33112C376.356 2.31451 376.506 2.32525 376.674 2.35164C376.91 2.38781 376.927 2.3839 377.712 2.39465C377.793 2.39563 377.891 2.41028 377.937 2.42299C377.96 2.42983 377.908 2.44939 377.868 2.45917C377.816 2.47089 377.735 2.48457 377.66 2.4875C376.806 2.51291 375.947 2.53539 375.093 2.56081C375.006 2.56374 374.914 2.57059 374.851 2.58036C374.782 2.59111 374.695 2.60576 374.695 2.61945C374.695 2.62922 374.81 2.64095 374.891 2.6478C375.145 2.67028 375.445 2.63607 375.693 2.66148C375.86 2.6781 375.999 2.70155 376.166 2.71719C376.235 2.72403 376.345 2.72305 376.431 2.7211C376.72 2.71426 377.002 2.70449 377.291 2.69862C377.372 2.69764 377.464 2.70742 377.539 2.71524C378.093 2.77389 378.093 2.77388 378.571 2.76118C378.762 2.75629 378.964 2.74163 379.142 2.74749C379.315 2.75336 379.465 2.77974 379.621 2.79636C379.944 2.83155 380.25 2.86575 380.273 2.94199C380.284 2.97131 380.475 2.99672 380.665 2.99868C380.85 3.00063 381.046 2.98989 381.236 2.98402C381.686 2.9723 381.686 2.97229 382.269 3.03192C382.43 3.04853 382.603 3.05048 382.811 3.04071C382.892 3.0368 382.99 3.04071 383.076 3.0456C383.359 3.06026 383.359 3.07883 383.174 3.11401C382.915 3.16581 382.938 3.1707 383.665 3.21469C383.942 3.2313 384.155 3.26258 384.386 3.28995C384.761 3.33393 384.755 3.33392 384.507 3.39159C384.449 3.40429 384.397 3.41798 384.34 3.43167C384.172 3.46978 384.04 3.51083 383.694 3.51474C383.313 3.51865 382.932 3.53429 382.551 3.54505C382.182 3.5558 382.084 3.57925 382.119 3.64571C382.159 3.72585 382.234 3.73465 382.898 3.73368C383.088 3.73368 383.255 3.74149 383.399 3.76788C383.33 3.79916 383.203 3.82359 383.019 3.82946C382.546 3.84412 382.067 3.85683 381.594 3.86953C381.213 3.88029 380.833 3.89103 380.452 3.90178C380.215 3.90863 380.065 3.95945 380.129 4.01614C380.163 4.0484 380.192 4.08065 380.221 4.1129C380.284 4.17741 380.406 4.19403 380.792 4.1911C380.89 4.19012 380.982 4.1823 381.075 4.18425C381.45 4.19109 381.628 4.27221 382.078 4.2556C382.453 4.24192 382.846 4.23899 383.215 4.22139C383.555 4.20575 383.745 4.24095 383.982 4.26734C384.063 4.27614 384.149 4.2947 384.219 4.29372C384.697 4.28297 385.176 4.27222 385.643 4.25365C385.863 4.24584 385.995 4.2517 386.168 4.27515C386.584 4.33184 386.595 4.32891 387.212 4.31132C387.662 4.29763 387.668 4.29959 388.245 4.35921C388.406 4.37582 388.579 4.37582 388.787 4.368C389.058 4.35823 389.341 4.34259 389.623 4.35725C389.71 4.36116 389.82 4.37289 389.848 4.3856C389.866 4.3944 389.785 4.4159 389.716 4.42274C389.208 4.47357 388.614 4.46477 388.06 4.4853C387.887 4.49116 387.714 4.47259 387.57 4.4462C387.42 4.41981 387.258 4.40906 387.062 4.41395C386.682 4.4247 386.295 4.43154 385.92 4.44718C385.597 4.46086 385.372 4.43838 385.147 4.40808C385.072 4.3983 384.986 4.37973 384.911 4.38071C384.057 4.40026 383.198 4.41981 382.35 4.44718C382.009 4.4589 381.813 4.42763 381.582 4.40124C381.502 4.39245 381.421 4.37387 381.346 4.37485C381.058 4.37876 380.775 4.38951 380.486 4.39733C379.437 4.42665 378.392 4.45597 377.343 4.48334C377.273 4.48529 377.187 4.46477 377.106 4.45597C376.95 4.43838 376.789 4.42176 376.627 4.40514C376.339 4.41296 376.056 4.42274 375.768 4.4286C375.56 4.43251 375.376 4.4462 375.347 4.48334C375.329 4.50777 375.52 4.53025 375.722 4.5283C375.918 4.52634 376.114 4.51461 376.276 4.52732C377.077 4.58987 377.077 4.59085 377.579 4.57814C378.018 4.56641 377.971 4.55664 378.358 4.61039C378.525 4.63385 378.675 4.64754 378.866 4.64168C379.339 4.62799 379.817 4.61431 380.296 4.60258C380.371 4.60062 380.469 4.6104 380.544 4.61822C381.109 4.67686 381.109 4.67882 381.577 4.66415C382.188 4.64656 382.211 4.64167 382.621 4.7013C382.903 4.74235 383.163 4.714 383.434 4.71205C383.745 4.75016 384.086 4.78438 384.369 4.82738C384.703 4.87821 385.055 4.8694 385.436 4.85474C385.718 4.84399 385.995 4.84008 386.226 4.88015C386.445 4.91729 386.71 4.92121 387.01 4.91144C387.281 4.90264 387.558 4.88406 387.841 4.90557C387.916 4.91143 388.031 4.9261 388.026 4.93489C388.02 4.94858 387.945 4.96813 387.87 4.97399C387.339 5.01406 386.757 5.01308 386.197 5.03165C386.122 5.03459 386.024 5.02383 385.949 5.01601C385.788 4.99842 385.632 4.9779 385.476 4.95933C385.193 4.96519 384.905 4.96714 384.628 4.97887C384.415 4.98767 384.253 4.9867 384.097 4.96324C383.953 4.94174 383.797 4.91534 383.624 4.9085C383.451 4.90166 383.249 4.91632 383.059 4.92219C382.869 4.92805 382.65 4.92511 382.5 4.94075C382.35 4.95639 382.257 4.9906 382.159 5.01797C382.05 5.04827 381.9 5.05805 381.68 5.06098C381.479 5.06391 381.317 5.06 381.167 5.03263C381.104 5.0209 381.017 5.0121 380.93 5.00428C380.85 4.99744 380.757 4.98669 380.682 4.98864C379.823 5.01112 378.969 5.03557 378.11 5.05902C377.683 5.07075 377.689 5.07074 376.8 5.01308C376.72 5.00819 376.622 5.00135 376.541 5.00331C376.062 5.01504 375.589 5.02872 375.11 5.0424C374.626 5.05609 374.632 5.05413 373.807 4.99256C373.657 4.98083 373.438 4.99647 373.259 4.99451C372.884 4.98963 372.699 4.90753 372.261 4.92317C371.886 4.93685 371.493 4.93978 371.118 4.95737C370.778 4.97301 370.582 4.93881 370.351 4.91242C370.271 4.90362 370.184 4.88407 370.115 4.88602C369.255 4.90753 368.402 4.93196 367.26 4.93489C366.977 4.93489 367.104 4.95542 367.288 4.96226C367.554 4.97301 367.64 4.95249 367.496 4.91339C367.392 4.88603 367.242 4.87233 367.121 4.87918C367.058 4.88309 366.977 4.90166 367.26 4.93489C367.559 4.97203 367.542 4.99256 367.594 5.00428C367.721 5.03263 367.9 5.04436 368.085 5.04045C368.373 5.03361 368.656 5.02383 368.944 5.01797C369.025 5.01601 369.123 5.02286 369.198 5.03068C369.832 5.09127 369.838 5.09519 370.513 5.07173C370.726 5.06489 370.882 5.06489 371.049 5.08346C371.28 5.10887 371.447 5.15187 371.799 5.13819C372.267 5.11962 372.745 5.10887 373.224 5.09812C373.299 5.09617 373.38 5.11376 373.466 5.12158C373.703 5.14504 373.876 5.18902 374.228 5.17045C374.499 5.15579 374.793 5.15187 375.081 5.14894C375.156 5.14796 375.272 5.1636 375.306 5.17631C375.376 5.19879 375.289 5.22518 375.093 5.24375C375.012 5.25157 374.903 5.24961 374.81 5.25255C374.43 5.2633 374.049 5.27502 373.668 5.28382C373.466 5.2887 373.276 5.30337 373.253 5.33954C373.236 5.36397 373.443 5.38547 373.639 5.38351C373.928 5.38058 374.216 5.37276 374.493 5.36006C374.983 5.33855 375.41 5.34442 375.808 5.40599C376.091 5.449 376.074 5.43337 376.374 5.56043C376.449 5.59268 376.674 5.59561 376.87 5.59365C377.343 5.58877 377.562 5.60343 377.521 5.63373C377.47 5.67087 377.302 5.68259 377.089 5.68748C376.708 5.6953 376.327 5.70801 375.947 5.71876C375.854 5.7217 375.751 5.72755 375.664 5.7256C375.578 5.72365 375.497 5.71192 375.422 5.70312C375.26 5.68455 375.122 5.6562 374.949 5.64936C374.776 5.64252 374.574 5.65718 374.383 5.66305C374.193 5.66793 373.991 5.68259 373.818 5.67575C373.645 5.66891 373.501 5.6396 373.345 5.622C373.27 5.61321 373.178 5.59951 373.103 5.60049C372.722 5.60831 372.342 5.62102 371.961 5.6308C371.494 5.6435 371.494 5.6435 370.928 5.5829C370.767 5.56531 370.599 5.56629 370.386 5.57411C369.925 5.58975 369.919 5.58681 369.077 5.53012C368.996 5.52426 368.898 5.51742 368.817 5.52035C367.957 5.54283 367.104 5.56726 366.25 5.59072C365.517 5.61124 365.517 5.61125 365.114 5.70899C364.814 5.78132 364.808 5.78131 365.102 5.81455C365.339 5.84191 365.552 5.88198 365.812 5.89664C366.054 5.91033 366.354 5.86635 366.619 5.91131C366.752 5.93379 366.925 5.95822 367.092 5.96213C367.358 5.96702 367.64 5.93867 367.894 5.98168C368.021 6.00318 368.211 6.02567 368.373 6.02664C368.656 6.0286 368.944 6.01295 369.227 6.00611C369.313 6.00416 369.411 6.00416 369.492 6.00905C369.578 6.01491 369.653 6.02664 369.728 6.03642C369.959 6.06965 370.207 6.08528 370.507 6.06867C370.997 6.0413 371.436 6.05498 371.817 6.11753C371.869 6.12633 371.995 6.12731 372.076 6.1234C372.284 6.11363 372.463 6.11265 372.618 6.13122C372.682 6.13904 372.774 6.15272 372.763 6.16151C372.745 6.17617 372.676 6.19572 372.601 6.20061C372.059 6.23384 371.476 6.23776 370.917 6.25535C370.842 6.2573 370.749 6.24459 370.674 6.2358C370.513 6.2182 370.374 6.18889 370.201 6.18205C370.028 6.1752 369.827 6.18791 369.636 6.1928C369.446 6.19768 369.244 6.21235 369.071 6.20648C368.898 6.19964 368.736 6.1752 368.598 6.1537C368.436 6.12926 368.281 6.12634 368.067 6.13611C367.79 6.14882 367.502 6.15077 367.219 6.15761C367.064 6.13904 366.908 6.11851 366.746 6.10091C366.671 6.09212 366.579 6.08137 366.498 6.08235C366.117 6.09017 365.737 6.10189 365.356 6.11264C364.975 6.12339 364.975 6.12341 364.329 6.06281C364.254 6.05597 364.156 6.04815 364.075 6.0501C363.597 6.06183 363.124 6.07648 362.645 6.08821C362.46 6.0931 362.293 6.07941 362.143 6.05302C361.999 6.02663 361.826 6.01197 361.647 6.01686C360.885 6.03739 360.124 6.05694 359.363 6.08137C359.057 6.09115 358.797 6.08235 358.59 6.04717C358.347 6.00709 358.076 6.01687 357.794 6.02469C357.153 6.04424 357.148 6.04325 356.738 5.9934C356.657 5.98363 356.577 5.96506 356.502 5.96603C355.838 5.9807 355.169 5.99438 354.512 6.01784C354.165 6.03055 353.981 5.99634 353.75 5.97093C353.669 5.96213 353.583 5.94356 353.514 5.94551C353.035 5.95626 352.556 5.96604 352.089 5.98559C351.621 6.00514 351.443 5.91424 351.091 5.91522C350.612 5.9162 350.139 5.93868 349.666 5.95236C349.285 5.96311 348.905 5.97386 348.524 5.98461C348.143 5.99536 347.763 6.00415 347.382 6.01686C347.18 6.0237 347.03 6.0149 346.863 5.99047C346.649 5.95822 346.395 5.93281 346.165 5.90349C345.813 5.86146 345.813 5.86146 345.386 5.87319C345.294 5.87612 345.196 5.87807 345.103 5.881C344.405 5.9025 344.405 5.90056 343.517 5.83898C343.477 5.83605 343.373 5.8468 343.332 5.85462C343.211 5.88003 343.102 5.9074 342.992 5.93378C342.836 5.91815 342.646 5.90935 342.542 5.88687C342.248 5.82334 341.786 5.91033 341.487 5.84777C341.377 5.82432 341.187 5.80379 341.014 5.79793C340.835 5.79206 340.633 5.80575 340.448 5.81161C339.969 5.82627 339.969 5.8253 339.56 5.91228C339.352 5.95529 339.052 5.94747 338.781 5.95724C338.499 5.96799 338.227 5.97386 337.991 5.93378C337.777 5.89762 337.518 5.88883 337.212 5.90056C336.837 5.91522 336.451 5.92401 336.07 5.93281C335.989 5.93476 335.891 5.92988 335.81 5.92401C334.928 5.86635 334.928 5.86537 334.501 5.87808C334.311 5.88394 334.115 5.88589 333.93 5.89469C333.618 5.91033 333.382 5.8898 333.157 5.85852C333.082 5.84875 332.995 5.83019 332.921 5.83117C332.54 5.83605 332.165 5.84485 331.79 5.85364C331.501 5.86049 331.213 5.8644 330.936 5.87808C330.475 5.90056 330.25 5.83702 329.933 5.8077C329.46 5.8204 328.981 5.8292 328.508 5.8468C328.289 5.85461 328.144 5.85169 327.977 5.82823C327.764 5.79891 327.568 5.76568 327.221 5.78034C326.76 5.79989 326.275 5.80673 325.802 5.81846C325.485 5.78816 325.254 5.72658 324.799 5.74906C324.522 5.76274 324.228 5.76567 323.945 5.77349C323.564 5.78424 323.184 5.79402 322.803 5.80575C322.393 5.81748 322.399 5.81455 321.77 5.75688C321.407 5.72267 321.032 5.76079 320.663 5.76665C320.374 5.77154 320.23 5.8165 320.299 5.87417C320.369 5.93183 320.213 5.97679 319.947 5.98461C319.284 6.00318 318.615 6.02272 317.952 6.03934C317.871 6.04129 317.773 6.03445 317.698 6.02761C316.988 5.96603 316.988 5.96702 316.671 5.97582C316.198 5.99048 315.714 5.99829 315.246 6.01686C314.923 6.02957 314.687 6.00905 314.479 5.97582C314.318 5.95041 314.168 5.94454 313.96 5.9504C311.676 6.01589 309.391 6.07649 307.113 6.14393C306.773 6.1537 306.577 6.12536 306.346 6.09897C306.265 6.09017 306.19 6.0716 306.109 6.0716C305.919 6.0716 305.728 6.0804 305.538 6.08626C304.684 6.10972 303.831 6.13806 302.971 6.15565C302.608 6.16347 302.51 6.20844 302.354 6.24558C302.233 6.27392 302.095 6.28565 301.881 6.28956C301.673 6.29347 301.523 6.28858 301.362 6.26316C301.154 6.22993 300.918 6.20941 300.595 6.22309C300.22 6.23873 299.839 6.24558 299.452 6.25633C299.256 6.26122 299.106 6.27881 299.043 6.31399C299.031 6.31986 299.153 6.33452 299.222 6.34332C299.453 6.37264 299.672 6.40685 299.931 6.42737C300.197 6.4479 300.485 6.42443 300.762 6.41857C300.86 6.41661 300.952 6.41075 301.045 6.41173C301.131 6.41271 301.235 6.4176 301.298 6.42639C301.598 6.47038 301.916 6.50067 302.331 6.47428C302.689 6.48699 302.873 6.56811 303.329 6.54661C303.606 6.5339 303.894 6.52804 304.183 6.52315C304.258 6.52218 304.338 6.53977 304.419 6.54857C304.65 6.573 304.834 6.6121 305.181 6.59548C305.55 6.57789 305.942 6.57496 306.317 6.56127C306.525 6.55345 306.674 6.5603 306.836 6.58571C307.044 6.61796 307.28 6.64239 307.603 6.62675C307.88 6.61307 308.174 6.61014 308.457 6.60134C308.826 6.59059 308.826 6.59157 309.484 6.65216C309.559 6.65901 309.657 6.66683 309.738 6.66487C310.216 6.65314 310.689 6.63848 311.168 6.62675C311.353 6.62186 311.532 6.63457 311.658 6.66291C311.71 6.67464 311.693 6.6942 311.71 6.71082C310.758 6.73721 309.807 6.75968 308.861 6.79194C308.503 6.80464 308.342 6.76457 308.105 6.74209C308.024 6.73427 307.938 6.71766 307.863 6.71961C307.194 6.73623 306.53 6.75381 305.867 6.77532C305.659 6.78216 305.504 6.77825 305.348 6.7499C304.95 6.67464 304.465 6.7157 304.015 6.72645C303.669 6.73427 303.56 6.76457 303.6 6.82908C303.652 6.90531 303.86 6.92877 304.39 6.91509C304.581 6.9102 304.771 6.90336 304.961 6.89945C305.146 6.89554 305.313 6.90824 305.463 6.93463C305.607 6.96102 305.78 6.9747 305.959 6.9708C306.34 6.962 306.726 6.95321 307.096 6.93855C307.401 6.92682 307.655 6.93659 307.869 6.97275C308.105 7.01283 308.382 7.00403 308.659 6.99523C309.305 6.97568 309.311 6.97667 309.714 7.02554C309.795 7.03531 309.876 7.05388 309.951 7.0529C310.614 7.03824 311.283 7.02554 311.935 7.00208C312.276 6.99035 312.472 7.02162 312.697 7.04703C312.777 7.05583 312.858 7.07538 312.933 7.07343C313.412 7.06267 313.891 7.05192 314.358 7.03335C314.577 7.02455 314.71 7.03041 314.889 7.05387C315.315 7.11154 315.327 7.10958 315.933 7.09101C316.117 7.08515 316.319 7.0744 316.492 7.08222C316.665 7.09004 316.804 7.11839 316.965 7.13598C317.04 7.1438 317.133 7.15454 317.213 7.15259C317.594 7.14477 317.975 7.13305 318.355 7.1223C318.713 7.11154 318.713 7.11252 319.382 7.17312C319.653 7.19853 319.936 7.17703 320.207 7.16921C320.501 7.16041 320.767 7.16042 320.992 7.19853C321.217 7.23665 321.488 7.23469 321.776 7.22687C322.047 7.21905 322.324 7.19756 322.601 7.22395C323.235 7.28455 323.236 7.28551 323.628 7.27378C324.199 7.25717 324.764 7.24153 325.341 7.22687C325.416 7.22492 325.514 7.23665 325.589 7.24447C325.75 7.26206 325.889 7.29138 326.062 7.29822C326.235 7.30604 326.437 7.29431 326.621 7.28845C327.216 7.26988 327.256 7.26304 327.654 7.32755C327.989 7.38032 328.404 7.30409 328.715 7.36469C328.894 7.3989 329.136 7.42626 329.471 7.40964C329.748 7.39596 330.036 7.39205 330.325 7.38423C330.78 7.37152 330.78 7.37251 331.357 7.43115C331.432 7.43897 331.53 7.44874 331.605 7.44678C331.986 7.43897 332.373 7.43213 332.742 7.41454C333.174 7.39401 333.451 7.43115 333.774 7.46732C334.028 7.49566 334.328 7.4722 334.599 7.46243C334.893 7.45265 335.159 7.45558 335.378 7.4937C335.609 7.53279 335.88 7.52791 336.168 7.52009C336.439 7.51325 336.716 7.49077 336.993 7.51813C337.587 7.57873 337.587 7.57873 338.02 7.567C338.4 7.55625 338.781 7.54453 339.162 7.53671C339.237 7.53475 339.329 7.54746 339.404 7.55625C339.566 7.57384 339.704 7.60317 339.877 7.61001C340.05 7.61685 340.252 7.60415 340.442 7.59926C340.633 7.59438 340.835 7.57971 341.008 7.58558C341.181 7.59144 341.342 7.61588 341.481 7.63738C341.642 7.6628 341.792 7.66572 342.011 7.65595C342.288 7.64324 342.577 7.64031 342.859 7.63347C343.015 7.65204 343.177 7.67061 343.327 7.69113C343.482 7.71264 343.65 7.71068 343.863 7.70384C344.573 7.68038 344.578 7.68332 345.172 7.74392C345.444 7.77128 345.726 7.7488 345.997 7.74196C346.286 7.73414 346.557 7.73023 346.782 7.76933C347.001 7.80647 347.272 7.81135 347.561 7.79962C347.745 7.7918 347.941 7.78692 348.132 7.78399C348.218 7.78301 348.322 7.78692 348.385 7.79474C348.691 7.83579 348.991 7.87294 349.412 7.84655C349.781 7.85437 349.966 7.93451 350.41 7.91887C350.785 7.90519 351.177 7.90225 351.547 7.88465C351.887 7.86902 352.129 7.89639 352.302 7.9306C352.614 7.9912 353.052 7.9091 353.364 7.96872C353.542 8.00293 353.773 8.03029 354.119 8.01563C354.5 7.99999 354.621 8.02051 354.731 8.08209C354.794 8.11728 354.783 8.14562 354.667 8.17299C354.552 8.20134 354.425 8.19645 354.24 8.1642C354.027 8.12803 353.773 8.12118 353.467 8.129C353.167 8.13682 352.983 8.08601 352.735 8.06646C352.487 8.04593 352.193 8.08014 351.933 8.05375C351.322 7.99218 351.322 7.99218 350.906 8.0039C350.624 8.01172 350.329 8.01563 350.053 8.02932C349.724 8.04593 349.51 8.01563 349.285 7.98826C349.205 7.97849 349.124 7.95992 349.055 7.96089C348.391 7.97555 347.722 7.98924 347.065 8.01368C346.718 8.02638 346.534 7.9912 346.303 7.96676C346.222 7.95797 346.136 7.94037 346.067 7.94233C345.496 7.95601 344.93 7.9736 344.359 7.99022C344.25 8.01661 344.128 8.04202 344.025 8.07036C343.915 8.09968 343.765 8.11239 343.546 8.11142C343.182 8.11142 342.825 8.15247 342.461 8.10067C342.086 8.04789 342.058 8.05082 341.694 8.06352C341.233 8.08014 340.742 8.07623 340.31 8.11435C340.235 8.12119 340.154 8.13975 340.154 8.15344C340.148 8.16223 340.269 8.17494 340.344 8.18276C340.598 8.20622 340.892 8.17201 341.146 8.19645C341.313 8.21209 341.452 8.23554 341.619 8.25215C341.688 8.259 341.792 8.25802 341.885 8.25705C341.983 8.25607 342.075 8.24923 342.167 8.25021C342.254 8.25119 342.346 8.25704 342.415 8.26584C342.733 8.30298 343.067 8.33719 343.35 8.38118C343.627 8.42418 343.886 8.39486 344.163 8.3929C345.271 8.46132 345.271 8.4623 346.015 8.4408C346.199 8.43591 346.39 8.43005 346.58 8.43102C346.661 8.43102 346.736 8.44861 346.816 8.45838C347.047 8.4877 347.266 8.5141 347.59 8.49846C347.866 8.48478 348.161 8.48184 348.443 8.47305C348.824 8.46229 348.824 8.4623 349.47 8.52387C349.632 8.53951 349.805 8.53756 350.012 8.52974C350.191 8.5229 350.376 8.53756 350.502 8.5659C350.554 8.57763 350.537 8.59718 350.554 8.6138C349.983 8.62943 349.407 8.64019 348.853 8.66364C348.495 8.6783 348.334 8.63628 348.097 8.6138C348.016 8.60598 347.93 8.58936 347.855 8.59132C347.29 8.60598 346.724 8.62258 346.159 8.64213C346.09 8.64409 346.003 8.66657 345.997 8.68025C345.986 8.70566 346.13 8.7301 346.338 8.72912C346.615 8.72814 346.886 8.71153 347.134 8.7516C347.341 8.78679 347.601 8.80243 347.907 8.7868C348.091 8.778 348.288 8.778 348.472 8.77018C348.962 8.74672 349.406 8.75161 349.776 8.81807C350.058 8.83566 350.335 8.81905 350.606 8.81025C350.808 8.80341 351.004 8.79656 351.149 8.81513C351.454 8.85423 351.754 8.89333 352.175 8.86694C352.631 8.8943 352.977 8.95197 353.358 8.99888C353.537 9.02136 353.675 9.03408 353.883 9.01942C353.969 9.01355 354.073 9.01354 354.165 9.01061C354.356 9.00572 354.558 8.99106 354.731 8.99693C354.904 9.00377 355.048 9.03212 355.204 9.04971C355.279 9.05851 355.365 9.07316 355.44 9.07219C355.729 9.0673 356.011 9.05753 356.294 9.04971C356.577 9.04287 356.859 9.03603 357.142 9.02919C357.378 9.0546 357.621 9.08001 357.857 9.10543C358.238 9.09468 358.619 9.08392 358.994 9.07414C359.415 9.06242 359.415 9.06339 360.02 9.12399C360.291 9.15136 360.58 9.13376 360.839 9.12106C361.272 9.10053 361.56 9.13768 361.866 9.17677C361.93 9.18459 362.045 9.18948 362.12 9.18557C362.42 9.17188 362.679 9.18263 362.899 9.2188C363.054 9.24421 363.21 9.25594 363.401 9.25106C364.064 9.23249 364.727 9.21293 365.391 9.19632C365.471 9.19436 365.564 9.20316 365.639 9.21098C366.227 9.2706 366.233 9.27353 366.665 9.25789C367.052 9.24421 367.41 9.23834 367.715 9.2921C367.779 9.30383 367.877 9.32045 367.946 9.31947C368.419 9.3097 368.898 9.29894 369.365 9.28233C369.578 9.27451 369.728 9.27745 369.896 9.29993C370.109 9.32827 370.3 9.36248 370.651 9.34977C371.626 9.31361 371.632 9.31946 372.786 9.3869C372.866 9.39179 372.976 9.38398 373.068 9.38007C373.264 9.37029 373.409 9.38398 373.582 9.40646C373.968 9.45728 373.98 9.45435 374.349 9.4436C374.632 9.4348 374.926 9.43285 375.203 9.41819C375.629 9.39668 375.912 9.43481 376.229 9.47097C376.483 9.49931 376.777 9.47585 377.048 9.46706C377.343 9.45728 377.608 9.46021 377.827 9.49735C377.977 9.52276 378.139 9.53646 378.329 9.53157C378.992 9.51398 379.656 9.49442 380.319 9.47683C380.4 9.47487 380.498 9.48269 380.573 9.48954C381.231 9.55013 381.231 9.55307 381.882 9.53059C382.09 9.52375 382.263 9.52179 382.419 9.54232C382.569 9.56187 382.73 9.58043 382.886 9.599C383.169 9.59216 383.457 9.59021 383.734 9.57848C383.947 9.56968 384.097 9.5736 384.265 9.59412C384.484 9.62051 384.668 9.66644 385.015 9.64396C385.193 9.63321 385.401 9.63615 385.58 9.62637C385.793 9.61367 385.938 9.62148 386.105 9.64689C386.312 9.67719 386.526 9.70847 386.86 9.69283C387.23 9.67523 387.622 9.67231 387.997 9.65862C388.204 9.6508 388.349 9.65862 388.516 9.68404C388.724 9.71629 388.96 9.73682 389.283 9.72411C389.941 9.69968 389.946 9.70456 390.587 9.76613C390.748 9.78177 390.921 9.77982 391.129 9.772C391.308 9.76516 391.492 9.77982 391.619 9.80817C391.74 9.83944 391.729 9.85898 391.74 9.8756ZM340.339 1.06051C340.148 1.0654 339.958 1.07126 339.681 0.98623C339.664 0.971569 339.675 0.95398 339.635 0.941274C339.543 0.914884 339.398 0.896315 339.225 0.893382C338.914 0.889473 338.539 0.922698 338.545 0.94811C338.55 0.969613 338.648 0.98818 338.839 1.00577C338.92 1.01261 338.983 1.02435 339.058 1.03216C339.277 1.05464 339.45 1.09863 339.768 1.07615C339.71 1.01556 339.739 1.04585 339.768 1.07615C339.739 1.11329 339.825 1.13969 340.033 1.15044C340.091 1.15337 340.177 1.15141 340.223 1.14555C340.402 1.12404 340.431 1.09473 340.298 1.01751C340.275 1.03022 340.293 1.05269 340.344 1.05856C340.396 1.06442 340.523 1.05954 340.587 1.0527C340.748 1.03413 340.829 1.00969 340.789 0.989165C340.766 0.978413 340.656 0.96473 340.587 0.96473C340.466 0.96473 340.356 0.986231 340.339 1.06051ZM386.981 12.3953C386.56 12.4139 386.076 12.407 385.655 12.4452C385.58 12.452 385.505 12.4696 385.499 12.4833C385.493 12.4921 385.609 12.5048 385.678 12.5116C385.834 12.5273 386.007 12.5224 386.209 12.5175C386.514 12.5106 386.693 12.5556 386.93 12.5781C387.005 12.5849 387.103 12.5898 387.183 12.5879C387.651 12.5761 388.112 12.5634 388.579 12.5498C388.66 12.5468 388.747 12.54 388.816 12.5312C389.047 12.5028 389.024 12.4843 388.799 12.4628C388.551 12.4393 388.354 12.4002 388.101 12.3816C387.737 12.3552 387.368 12.3904 386.981 12.3953ZM354.223 13.1088C353.94 13.1166 353.663 13.1245 353.381 13.1323C353.289 13.1352 353.19 13.1362 353.104 13.1401C352.925 13.1469 352.793 13.1675 352.706 13.1997C352.839 13.2251 353 13.2398 353.179 13.2369C353.462 13.231 353.739 13.2183 354.021 13.2154C354.327 13.2114 354.506 13.2554 354.742 13.2779C354.817 13.2847 354.909 13.2857 354.996 13.2867C355.423 13.2906 355.682 13.2398 355.602 13.1684C355.544 13.1127 355.325 13.0795 355.06 13.0863C354.783 13.0932 354.5 13.101 354.223 13.1088ZM388.954 10.9507C389.024 10.9341 389.099 10.9224 389.133 10.9077C389.237 10.8579 389.197 10.8207 389.006 10.7816C388.775 10.7338 388.493 10.766 388.233 10.7709C388.17 10.7719 388.101 10.7924 388.066 10.8051C388.043 10.8139 388.043 10.8325 388.078 10.8374C388.36 10.8765 388.66 10.9126 388.954 10.9507ZM338.914 8.06352C338.637 8.07134 338.354 8.07721 338.078 8.08796C338.008 8.09089 337.945 8.10946 337.904 8.12217C337.829 8.14562 337.91 8.17787 338.147 8.18081C338.418 8.18472 338.7 8.1681 338.983 8.16028C339.341 8.15051 339.554 8.11434 339.421 8.08307C339.295 8.05277 339.122 8.04691 338.914 8.06352ZM35.2734 5.97484C35.458 5.96995 35.6484 5.96604 35.8329 5.9592C36.006 5.95236 36.1388 5.93085 36.2253 5.8986C36.0811 5.87319 35.9195 5.85951 35.7407 5.86244C35.458 5.8683 35.1812 5.87612 34.9043 5.88589C34.7313 5.89176 34.564 5.91326 34.5237 5.94649C34.4833 5.9719 34.8696 5.98657 35.2734 5.97484ZM314.52 5.82432C314.594 5.83311 314.669 5.85071 314.744 5.85071C314.929 5.85071 315.119 5.84484 315.293 5.83507C315.367 5.83116 315.425 5.81357 315.46 5.79988C315.483 5.79109 315.477 5.77545 315.443 5.76763C315.275 5.72072 314.606 5.73733 314.496 5.79109C314.485 5.80086 314.514 5.81357 314.52 5.82432ZM296.32 0.472121C296.338 0.487759 296.343 0.503395 296.367 0.519034C296.413 0.548356 296.539 0.569862 296.724 0.584523C296.868 0.560089 296.943 0.532726 296.938 0.503404C296.932 0.487766 296.914 0.472118 296.891 0.456479C296.845 0.427158 296.718 0.405663 296.534 0.391002C296.39 0.414459 296.32 0.441822 296.32 0.472121ZM402.285 13.2789C402.233 13.2916 402.181 13.3043 402.123 13.316C402.279 13.3444 402.423 13.3532 402.533 13.3375C402.602 13.3278 402.643 13.3131 402.695 13.3004C402.539 13.272 402.4 13.2642 402.285 13.2789ZM398.697 13.4118C398.772 13.4206 398.841 13.4323 398.922 13.4382C399.055 13.448 399.176 13.4314 399.268 13.3962C399.193 13.3874 399.124 13.3756 399.043 13.3698C398.911 13.36 398.789 13.3766 398.697 13.4118ZM400.97 13.2329C400.929 13.2564 401.01 13.276 401.224 13.2926C401.276 13.2799 401.345 13.2681 401.379 13.2544C401.437 13.232 401.339 13.2114 401.131 13.1958C401.074 13.2075 401.022 13.2202 400.97 13.2329ZM388.793 12.1793C388.752 12.2028 388.833 12.2223 389.047 12.2389C389.099 12.2262 389.168 12.2145 389.202 12.2008C389.26 12.1783 389.162 12.1578 388.954 12.1422C388.897 12.1539 388.845 12.1666 388.793 12.1793ZM372.203 5.2633C372.151 5.276 372.099 5.28871 372.042 5.30044C372.197 5.32878 372.341 5.33757 372.451 5.32194C372.52 5.31216 372.561 5.2975 372.613 5.2848C372.457 5.25645 372.318 5.24863 372.203 5.2633ZM356.311 1.59416C356.45 1.60101 356.565 1.58733 356.663 1.55116C356.588 1.54237 356.519 1.53064 356.438 1.52477C356.305 1.515 356.184 1.53162 356.092 1.56681C356.167 1.57658 356.242 1.58537 356.311 1.59416ZM347.872 1.36448C347.82 1.37719 347.768 1.38989 347.711 1.40162C347.866 1.42997 348.011 1.43876 348.12 1.42312C348.189 1.41335 348.23 1.39869 348.282 1.38598C348.126 1.35764 347.988 1.3508 347.872 1.36448ZM290.644 0.471143C290.592 0.483849 290.54 0.496555 290.483 0.508284C290.639 0.536628 290.783 0.545422 290.892 0.529784C290.962 0.52001 291.002 0.505348 291.054 0.492642C290.898 0.464298 290.76 0.457459 290.644 0.471143ZM5.69329 8.4232C5.6183 8.4144 5.54338 8.40561 5.47416 8.39584C5.30688 8.42223 5.25498 8.44666 5.34728 8.46523C5.40496 8.47696 5.49142 8.4838 5.56641 8.4926C5.73946 8.46621 5.77982 8.44275 5.69329 8.4232Z" fill="#FFE492"/>
<path d="M39.1504 4.97218C38.487 4.99075 37.8295 5.0142 37.1661 5.02593C36.8142 5.03179 36.6874 5.07382 36.5432 5.11292C36.4279 5.14419 36.2952 5.15397 36.0817 5.15983C34.282 5.20772 32.488 5.25855 30.694 5.30839C30.4691 5.29569 30.3595 5.27517 30.4114 5.25073C30.4402 5.23607 30.5095 5.21555 30.5787 5.21359C31.8074 5.17743 33.0302 5.14028 34.2646 5.11194C34.6165 5.10412 34.7146 5.06111 34.8934 5.02593C34.9511 5.0142 34.9973 4.99661 35.0723 4.98976C35.1473 4.98195 35.2569 4.98293 35.3549 4.98097C37.3392 4.92526 39.3236 4.87053 41.3079 4.81482C41.5329 4.82753 41.6425 4.84805 41.5905 4.87248C41.5617 4.88714 41.4925 4.90767 41.4232 4.90962C40.6618 4.93015 39.906 4.95068 39.1504 4.97218Z" fill="#FFE492"/>
<path d="M402.746 10.1769C402.446 10.1887 402.065 10.2053 401.754 10.1486C401.604 10.1212 401.442 10.1124 401.246 10.1183C400.963 10.1281 400.675 10.1359 400.386 10.1418C400.311 10.1427 400.213 10.132 400.138 10.1232C399.977 10.1056 399.838 10.0763 399.665 10.0685C399.492 10.0606 399.285 10.0821 399.106 10.0772C398.869 10.0704 398.771 10.044 398.835 10.0196C398.869 10.0059 398.939 9.98636 399.014 9.98342C400.081 9.94726 400.086 9.94726 400.386 9.98244C400.617 10.0098 400.831 10.0401 401.159 10.0235C401.436 10.0098 401.731 10.0069 402.013 9.99807C402.405 9.98635 402.405 9.98733 403.04 10.0489C403.201 10.0645 403.374 10.0636 403.582 10.0548C403.761 10.0479 403.934 10.0636 404.078 10.09C403.986 10.1232 403.853 10.1447 403.674 10.1506C403.386 10.1603 403.103 10.1672 402.746 10.1769Z" fill="#FFE492"/>
<path d="M391.52 9.8757C392.247 9.85517 392.98 9.83759 393.706 9.81413C394.006 9.80436 394.243 9.81511 394.451 9.84834C394.676 9.8845 394.929 9.88157 395.206 9.87473C395.379 9.87082 395.547 9.88645 395.662 9.91382C395.708 9.92457 395.697 9.94413 395.714 9.95976C395.079 9.97736 394.439 9.99592 393.799 10.0116C393.724 10.0135 393.632 10.0037 393.562 9.99593C393.407 9.97931 393.274 9.94999 393.107 9.94412C392.749 9.93044 392.391 9.95682 392.028 9.96171C391.855 9.96366 391.688 9.94901 391.572 9.92262C391.526 9.90992 391.538 9.89134 391.52 9.8757Z" fill="#FFE492"/>
<path d="M128.891 1.47209C129.647 1.45059 130.403 1.43007 131.158 1.40857C131.383 1.42225 131.487 1.4418 131.441 1.46623C131.412 1.48089 131.343 1.50142 131.273 1.50337C129.762 1.54736 128.251 1.58938 126.745 1.63141C126.52 1.61772 126.417 1.59818 126.463 1.57374C126.492 1.55908 126.561 1.53856 126.63 1.5366C127.38 1.51412 128.136 1.49359 128.891 1.47209Z" fill="#FFE492"/>
<path d="M12.1937 6.90333C11.8534 6.90528 11.4958 6.94145 11.1151 6.91408C11.0401 6.90919 10.9362 6.89355 10.942 6.88475C10.9535 6.87009 11.0228 6.85152 11.0978 6.84566C11.4266 6.82122 11.8361 6.81829 12.0034 6.74987C12.0842 6.71469 12.2342 6.70297 12.4361 6.69612C12.6495 6.6883 12.7994 6.69123 12.9667 6.71175C13.1859 6.73814 13.3705 6.78701 13.7166 6.7616C13.7339 6.77724 13.7742 6.79483 13.7569 6.80949C13.7396 6.82415 13.6647 6.83784 13.5955 6.84859C13.532 6.85836 13.4454 6.86716 13.3647 6.87009C12.984 6.88182 12.6032 6.8916 12.1937 6.90333Z" fill="#FFE492"/>
<path d="M312.152 6.70688C312.434 6.69906 312.728 6.69515 313.005 6.68147C313.224 6.67072 313.363 6.67756 313.536 6.70101C313.83 6.74206 313.847 6.73816 314.568 6.74403C314.649 6.745 314.747 6.75966 314.793 6.77236C314.822 6.7792 314.782 6.79778 314.747 6.80756C314.695 6.82026 314.62 6.83687 314.551 6.83687C314.095 6.8398 313.634 6.89748 313.19 6.83101C312.965 6.79778 312.717 6.78214 312.411 6.7968C312.226 6.80559 312.03 6.80951 311.84 6.81342C311.655 6.81733 311.465 6.80657 311.35 6.77725C311.182 6.73425 311.28 6.71764 311.58 6.72057C311.771 6.72252 311.961 6.71177 312.152 6.70688Z" fill="#FFE492"/>
<path d="M416.68 13.4445C417.044 13.4347 417.407 13.423 417.776 13.4152C417.851 13.4132 417.943 13.424 418.013 13.4308C418.29 13.4601 418.249 13.5099 418.261 13.5539C418.266 13.5999 417.626 13.637 417.355 13.6057C417.055 13.5706 416.784 13.5305 416.369 13.552C416.207 13.5598 416.017 13.5422 415.913 13.5139C415.757 13.4728 415.844 13.4562 416.138 13.4591C416.311 13.4611 416.496 13.4503 416.68 13.4445Z" fill="#FFE492"/>
<path d="M233.541 0.140785C233.916 0.130033 234.291 0.113426 234.666 0.112448C234.885 0.111471 234.995 0.143719 234.943 0.167176C234.914 0.181837 234.845 0.202363 234.775 0.204318C234.025 0.227775 233.276 0.247326 232.526 0.268829C232.306 0.255145 232.197 0.234623 232.249 0.211166C232.278 0.196505 232.347 0.176957 232.416 0.174025C232.791 0.160341 233.166 0.151536 233.541 0.140785Z" fill="#FFE492"/>
<path d="M409.396 10.2628C409.76 10.2531 410.129 10.2384 410.492 10.2335C410.683 10.2316 410.833 10.254 410.856 10.2795C410.867 10.2912 410.775 10.3117 410.7 10.3166C410.181 10.3498 409.621 10.3537 409.079 10.3704C408.906 10.3752 408.721 10.3596 408.618 10.3322C408.462 10.2902 408.549 10.2746 408.843 10.2775C409.027 10.2785 409.212 10.2677 409.396 10.2628Z" fill="#FFE492"/>
<path d="M321.742 6.83888C321.927 6.834 322.117 6.82129 322.296 6.8252C322.486 6.83009 322.607 6.85843 322.665 6.88677C322.728 6.91903 322.723 6.94933 322.665 6.9767C322.573 7.02361 322.48 7.02166 322.267 6.99038C321.938 6.94151 321.915 6.94737 321.263 6.94933C321.188 6.94933 321.096 6.93467 321.038 6.92196C320.952 6.90241 320.998 6.87212 321.2 6.85453C321.35 6.84182 321.557 6.84377 321.742 6.83888Z" fill="#FFE492"/>
<path d="M396.949 9.94206C397.22 9.93424 397.491 9.92154 397.762 9.92154C397.952 9.92056 398.102 9.94304 398.12 9.96747C398.125 9.9792 398.039 9.99875 397.97 10.0046C397.641 10.031 397.272 10.033 396.914 10.0418C396.747 10.0457 396.562 10.03 396.458 10.0027C396.303 9.96161 396.395 9.94303 396.678 9.9489C396.764 9.95085 396.856 9.94499 396.949 9.94206Z" fill="#FFE492"/>
<path d="M353.367 8.74303C352.963 8.75476 352.582 8.74011 352.611 8.7147C352.652 8.68147 352.819 8.65995 352.992 8.65409C353.269 8.64431 353.546 8.6365 353.828 8.63063C354.007 8.62672 354.169 8.64138 354.313 8.66679C354.226 8.69807 354.094 8.72055 353.921 8.72739C353.742 8.73423 353.551 8.73815 353.367 8.74303Z" fill="#FFE492"/>
<path d="M350.745 8.61784C351.016 8.61002 351.287 8.59732 351.558 8.59732C351.749 8.59634 351.899 8.61882 351.916 8.64326C351.922 8.65498 351.835 8.67453 351.766 8.6804C351.437 8.70679 351.068 8.70874 350.711 8.71754C350.543 8.72145 350.359 8.70581 350.255 8.67844C350.099 8.63739 350.191 8.61883 350.474 8.62469C350.561 8.62665 350.653 8.62077 350.745 8.61784Z" fill="#FFE492"/>
<path d="M319.13 6.83123C319.401 6.82342 319.672 6.8107 319.943 6.80972C320.134 6.80875 320.284 6.83123 320.301 6.85567C320.307 6.8674 320.22 6.88597 320.151 6.89281C319.822 6.9192 319.453 6.92116 319.095 6.92995C318.928 6.93386 318.744 6.91822 318.64 6.89085C318.484 6.8498 318.576 6.83123 318.859 6.83709C318.945 6.83905 319.038 6.83319 319.13 6.83123Z" fill="#FFE492"/>
<path d="M316.861 6.77333C317.15 6.76551 317.242 6.76062 317.334 6.76062C317.507 6.76062 317.686 6.77235 317.79 6.8007C317.946 6.84175 317.854 6.85348 317.571 6.85544C317.207 6.85739 316.85 6.87792 316.486 6.88183C316.296 6.88378 316.146 6.86032 316.135 6.83588C316.129 6.82415 316.215 6.80363 316.285 6.79972C316.527 6.78506 316.792 6.77626 316.861 6.77333Z" fill="#FFE492"/>
<path d="M348.582 1.02354C348.398 1.02842 348.202 1.04211 348.029 1.03722C347.798 1.03038 347.706 1.00399 347.763 0.979557C347.798 0.965874 347.861 0.946327 347.931 0.943394C348.3 0.929711 348.675 0.920907 349.044 0.911133C349.263 0.925794 349.361 0.946317 349.303 0.970752C349.269 0.984436 349.205 1.00301 349.136 1.00692C348.957 1.01669 348.767 1.01865 348.582 1.02354Z" fill="#FFE492"/>
<path d="M124.686 1.58721C124.865 1.58623 125.026 1.59894 125.164 1.62337C125.078 1.65465 124.951 1.67517 124.778 1.68397C124.692 1.68788 124.593 1.69081 124.501 1.69179C124.322 1.69374 124.161 1.68006 124.022 1.65562C124.109 1.62435 124.241 1.60382 124.409 1.59503C124.495 1.59112 124.593 1.59014 124.686 1.58721Z" fill="#FFE492"/>
<path d="M408.541 10.2587C408.536 10.2304 408.887 10.1981 409.205 10.1991C409.372 10.2001 409.545 10.2138 409.643 10.2402C409.793 10.2802 409.707 10.2959 409.424 10.2929C409.251 10.291 409.066 10.3076 408.893 10.3047C408.697 10.3037 408.582 10.2822 408.541 10.2587Z" fill="#FFE492"/>
<path d="M323.453 6.9571C323.447 6.94635 323.418 6.93365 323.436 6.92388C323.545 6.87012 324.209 6.8535 324.382 6.90042C324.41 6.90922 324.422 6.92387 324.399 6.93267C324.364 6.94635 324.301 6.96394 324.232 6.96785C324.053 6.97763 323.868 6.98252 323.684 6.98349C323.603 6.98349 323.528 6.96688 323.453 6.9571Z" fill="#FFE492"/>
<path d="M15.2211 6.74716C14.5404 6.76768 14.5289 6.76572 14.65 6.71685C14.7596 6.67287 14.9615 6.64648 15.2557 6.64648C15.3423 6.64648 15.4345 6.64453 15.5095 6.64844C15.5903 6.65333 15.7057 6.66309 15.723 6.67482C15.7576 6.6973 15.6595 6.72174 15.4864 6.73835C15.4114 6.74617 15.3134 6.74423 15.2211 6.74716Z" fill="#FFE492"/>
<path d="M133.074 1.44965C132.872 1.46626 132.699 1.4604 132.572 1.42913C132.445 1.39785 132.647 1.36071 132.999 1.35191C133.091 1.34995 133.189 1.34214 133.276 1.34605C133.362 1.34898 133.449 1.3607 133.501 1.37243C133.593 1.39198 133.535 1.41838 133.351 1.44086C133.276 1.44965 133.166 1.44769 133.074 1.44965Z" fill="#FFE492"/>
<path d="M407.337 10.1853C407.389 10.1726 407.441 10.1599 407.499 10.1482C407.712 10.1648 407.804 10.1844 407.747 10.2068C407.712 10.2205 407.643 10.2322 407.591 10.245C407.377 10.2283 407.291 10.2078 407.337 10.1853Z" fill="#FFE492"/>
<path d="M24.3168 17.8734C24.3168 17.8616 24.3975 17.8431 24.461 17.8391C24.5821 17.8323 24.732 17.846 24.8359 17.8734C24.9801 17.9124 24.8936 17.933 24.6283 17.9222C24.4437 17.9144 24.3168 17.8949 24.3168 17.8734Z" fill="#FFE492"/>
<path d="M326.212 6.04711C326.287 6.05591 326.362 6.06471 326.431 6.07448C326.333 6.11065 326.212 6.12628 326.085 6.1165C326.004 6.11064 325.935 6.09891 325.86 6.09011C325.958 6.05395 326.073 6.04027 326.212 6.04711Z" fill="#FFE492"/>
<path d="M324.799 6.00321C324.914 5.98855 325.053 5.99638 325.214 6.02472C325.162 6.03743 325.116 6.05209 325.053 6.06186C324.943 6.0775 324.799 6.06967 324.643 6.04035C324.689 6.02862 324.741 6.01592 324.799 6.00321Z" fill="#FFE492"/>
<path d="M322.565 6.04623C322.64 6.05503 322.715 6.06383 322.785 6.0736C322.687 6.10977 322.571 6.1254 322.439 6.11563C322.358 6.10976 322.289 6.09803 322.214 6.08923C322.312 6.05307 322.427 6.03842 322.565 6.04623Z" fill="#FFE492"/>
<path d="M321.389 5.99429C321.476 6.01384 321.43 6.03729 321.262 6.06368C321.187 6.05488 321.101 6.04805 321.043 6.03632C320.951 6.01775 320.997 5.99331 321.17 5.96692C321.239 5.97669 321.314 5.98549 321.389 5.99429Z" fill="#FFE492"/>
</svg>
